<?xml version="1.0" standalone="no"?>
<!DOCTYPE svg PUBLIC "-//W3C//DTD SVG 20010904//EN"
 "http://www.w3.org/TR/2001/REC-SVG-20010904/DTD/svg10.dtd">
<svg version="1.0" xmlns="http://www.w3.org/2000/svg"
 width="684.000000pt" height="684.000000pt" viewBox="0 0 684.000000 684.000000"
 preserveAspectRatio="xMidYMid meet">
<metadata>
Created by potrace 1.11, written by Peter Selinger 2001-2013
</metadata>
<g transform="translate(0.000000,684.000000) scale(0.100000,-0.100000)"
fill="#000000" stroke="none">
<path d="M3312 6644 c-106 -24 -182 -93 -182 -164 0 -20 -7 -46 -16 -58 -13
-20 -21 -21 -68 -16 -41 5 -63 2 -97 -13 -63 -29 -191 -126 -212 -161 -16 -28
-16 -32 -1 -46 8 -9 23 -17 32 -17 9 -1 24 -2 32 -3 10 -1 15 -12 16 -31 1
-45 20 -72 56 -81 18 -4 38 -7 44 -6 6 1 16 -9 22 -23 7 -15 24 -27 44 -33 21
-5 38 -18 46 -35 7 -15 20 -27 28 -27 9 0 14 -11 14 -34 0 -49 28 -80 73 -78
26 1 37 -3 37 -13 0 -21 49 -55 79 -55 15 0 37 9 48 19 21 20 21 20 27 -11 3
-16 18 -44 32 -61 23 -27 25 -37 20 -79 -6 -43 -5 -48 13 -48 29 0 78 46 91
84 6 18 22 39 35 46 14 7 25 17 25 22 0 5 13 7 30 3 23 -5 35 -1 54 18 15 15
29 21 37 17 20 -13 62 -1 82 21 9 12 17 38 17 59 0 21 7 43 15 50 8 7 12 16 9
21 -3 5 12 9 33 9 21 0 52 9 70 19 17 11 51 23 74 26 46 7 74 19 101 42 13 12
15 21 7 40 -12 31 -12 30 31 38 34 6 60 27 60 51 0 6 -21 29 -47 50 -27 21
-69 59 -95 85 -78 78 -111 100 -159 101 -24 1 -52 -1 -61 -6 -13 -6 -18 -4
-18 5 0 33 -61 138 -104 182 -94 93 -225 125 -374 91z m191 -75 c15 -27 21
-31 48 -25 37 7 69 -8 69 -33 0 -11 12 -23 28 -30 44 -18 54 -46 58 -155 4
-110 0 -136 -21 -136 -17 0 -23 17 -19 63 2 23 -3 48 -12 63 -13 19 -14 30 -5
52 6 15 9 34 8 42 -8 39 -20 60 -34 60 -11 0 -14 -6 -9 -22 4 -13 9 -31 11
-41 5 -24 -39 -69 -60 -61 -14 6 -14 8 0 24 17 19 17 71 0 71 -5 0 -12 -11
-14 -23 -3 -22 -17 -38 -33 -38 -4 0 -4 10 1 23 4 12 7 27 5 32 -1 6 -5 23 -8
38 -10 44 -31 27 -27 -22 3 -48 -11 -71 -45 -71 -24 0 -32 14 -14 25 17 10 12
85 -5 85 -10 0 -15 -10 -15 -32 0 -18 -7 -42 -15 -52 -31 -40 -5 -106 41 -106
29 0 32 20 4 27 -33 9 -23 21 22 25 32 3 47 -1 67 -18 18 -14 36 -20 57 -18
37 4 56 -23 50 -71 -2 -16 1 -42 6 -57 8 -23 6 -33 -14 -57 -12 -17 -35 -50
-51 -74 -16 -27 -42 -52 -64 -62 -36 -17 -39 -17 -104 4 -128 41 -167 91 -140
180 l12 41 36 -20 c33 -17 39 -18 71 -5 19 8 36 15 37 15 2 0 1 8 -2 19 -10
38 -90 54 -130 26 -18 -13 -22 -12 -38 5 -27 30 -7 66 45 81 27 8 45 21 50 35
12 31 6 58 -14 62 -14 3 -16 -1 -11 -18 8 -25 -10 -50 -35 -50 -10 0 -32 -12
-49 -26 -37 -31 -42 -77 -12 -103 17 -15 18 -22 8 -59 -6 -23 -15 -42 -19 -42
-18 0 -36 49 -41 110 -3 36 -8 73 -12 83 -5 13 -2 17 14 17 26 0 37 22 44 92
10 100 55 138 164 138 32 0 65 5 73 10 22 14 23 13 43 -21z m-442 -199 c25
-14 46 -56 54 -110 9 -61 35 -111 74 -137 18 -12 42 -37 54 -55 30 -44 75 -72
154 -98 88 -28 115 -22 198 48 37 31 84 66 104 77 30 17 39 30 56 85 27 85 60
147 82 154 23 7 71 -2 93 -17 36 -25 180 -166 180 -176 0 -40 -181 8 -229 61
-21 24 -29 28 -33 16 -9 -22 38 -75 72 -83 35 -8 48 -23 26 -31 -27 -10 -63 5
-97 41 -40 42 -62 31 -29 -14 24 -35 68 -61 100 -61 42 0 113 -51 91 -64 -46
-29 -159 2 -210 58 -24 25 -51 35 -51 17 0 -13 61 -71 92 -87 35 -18 27 -44
-14 -44 -21 0 -39 10 -61 33 -37 39 -46 24 -18 -29 20 -36 20 -39 4 -45 -24
-8 -43 -1 -76 29 -17 17 -31 22 -37 16 -13 -13 34 -63 72 -76 23 -8 27 -14 22
-32 -8 -28 -32 -46 -61 -46 -17 0 -28 11 -44 45 -12 25 -27 45 -35 45 -16 0
-19 -21 -4 -36 6 -6 15 -25 20 -43 7 -25 6 -33 -6 -38 -21 -8 -37 11 -49 59
-16 68 -36 61 -29 -10 7 -61 -1 -77 -29 -66 -17 6 -35 46 -39 88 -2 16 -9 31
-17 34 -18 6 -9 -76 15 -139 10 -25 15 -53 11 -62 -7 -20 -47 -23 -47 -4 0 7
-12 25 -27 41 -21 23 -28 42 -31 88 -5 65 -18 74 -45 28 -22 -37 -65 -50 -83
-26 -13 19 -9 42 13 64 18 18 16 42 -2 42 -8 0 -15 -3 -15 -7 0 -5 -16 -19
-34 -31 -37 -25 -70 -23 -80 3 -9 25 4 42 45 58 49 19 54 43 7 32 -55 -12 -72
-11 -76 6 -2 10 6 19 20 22 37 10 9 25 -52 29 -71 4 -72 24 -2 50 29 11 52 26
52 34 0 18 -14 18 -48 0 -16 -8 -59 -17 -98 -21 -58 -6 -72 -4 -83 9 -20 24
-5 33 69 40 81 7 122 18 128 35 3 9 -12 11 -64 7 -39 -4 -76 -2 -84 4 -11 7
-2 10 33 10 58 0 109 23 100 45 -5 14 -8 14 -30 -1 -20 -13 -41 -15 -96 -11
-51 4 -79 1 -98 -9 -30 -15 -59 -10 -59 11 0 17 68 73 145 119 60 37 101 44
136 26z"/>
<path d="M3498 6248 c-31 -26 -28 -44 11 -61 35 -16 41 -16 69 -1 38 19 40 36
7 58 -29 19 -65 21 -87 4z"/>
<path d="M3390 6124 c0 -28 83 -28 93 0 4 10 -6 13 -44 13 -31 -1 -49 -5 -49
-13z"/>
<path d="M3383 6067 c5 -17 75 -33 94 -21 26 16 9 27 -45 30 -36 1 -52 -2 -49
-9z"/>
<path d="M6155 6275 c-122 -50 -213 -142 -470 -480 -71 -93 -134 -175 -140
-181 -5 -6 -23 -28 -40 -49 -16 -21 -32 -41 -35 -44 -3 -3 -14 -13 -25 -21
-10 -8 6 21 38 66 101 145 138 251 130 374 -6 109 -66 228 -136 270 -44 27
-69 25 -102 -7 -42 -43 -33 -98 34 -196 67 -100 92 -160 93 -222 1 -73 -14
-117 -83 -240 -89 -159 -89 -158 -89 -183 0 -26 20 -37 53 -28 12 3 69 35 126
72 129 83 207 115 286 119 80 3 128 -13 240 -80 79 -48 98 -56 124 -50 68 15
90 102 38 148 -28 25 -111 62 -157 71 -19 3 -46 8 -60 11 -76 16 -211 -3 -275
-38 -11 -6 -33 -17 -50 -26 -16 -8 -61 -35 -100 -61 -88 -58 -95 -63 -95 -55
0 12 59 62 190 164 357 276 475 384 555 504 38 58 68 138 59 161 -9 24 -51 24
-109 1z"/>
<path d="M554 6255 c-14 -36 14 -124 60 -184 77 -103 165 -180 436 -388 188
-143 224 -172 278 -220 42 -39 16 -26 -76 37 -117 80 -205 112 -302 113 -93 1
-125 -5 -192 -35 -106 -49 -162 -121 -138 -178 14 -35 59 -54 104 -47 19 3 68
28 109 56 193 132 265 130 512 -16 95 -57 126 -69 150 -59 29 11 16 60 -41
146 -173 263 -181 362 -44 579 22 36 40 75 40 89 0 34 -51 82 -88 82 -57 0
-100 -61 -133 -187 -45 -179 -14 -301 130 -511 23 -35 41 -65 39 -68 -6 -5
-68 62 -123 131 -22 28 -42 52 -45 55 -3 3 -30 39 -60 80 -223 303 -429 501
-551 529 -57 14 -59 14 -65 -4z"/>
<path d="M2087 6193 c-12 -11 -8 -40 8 -53 24 -20 18 -47 -12 -57 -30 -10 -34
-10 -163 3 -47 4 -125 8 -175 8 -101 0 -140 -13 -195 -67 -40 -40 -119 -200
-129 -265 -8 -54 8 -151 33 -201 78 -150 295 -196 414 -87 55 50 79 147 58
236 l-8 35 35 -34 c20 -18 46 -57 58 -85 27 -61 37 -178 20 -229 -14 -40 -62
-87 -91 -87 -26 0 -40 28 -29 57 12 31 -16 32 -43 1 -47 -54 2 -133 82 -131
91 2 151 77 156 194 6 145 -65 282 -170 332 -111 52 -123 55 -225 49 -14 -1
-41 -19 -63 -42 -31 -34 -38 -48 -38 -81 0 -46 22 -94 49 -109 26 -13 77 -13
103 1 27 14 53 76 39 93 -14 17 -1 29 16 15 14 -12 16 -76 4 -119 -11 -38 -66
-70 -120 -70 -54 1 -114 20 -143 47 -103 93 -58 302 80 364 38 18 60 21 122
17 107 -7 159 -36 301 -173 151 -146 198 -170 324 -170 78 0 97 4 147 28 90
44 137 121 138 228 1 135 -78 239 -181 239 -81 0 -170 -55 -185 -114 -24 -95
97 -210 171 -162 28 19 33 36 9 36 -20 0 -74 54 -74 74 0 45 78 61 123 26 53
-42 53 -127 2 -182 -104 -112 -250 -70 -464 131 -117 110 -323 161 -451 112
-29 -11 -49 -16 -44 -11 6 6 37 20 70 31 73 26 197 32 279 13 95 -22 196 -27
225 -12 55 30 62 103 13 152 -24 25 -62 34 -76 19z"/>
<path d="M4688 6188 c-27 -20 -47 -67 -42 -101 10 -79 86 -94 264 -52 14 3 61
8 105 10 85 3 205 -20 228 -45 10 -10 9 -11 -3 -4 -8 4 -42 13 -75 19 -54 10
-87 8 -180 -9 -62 -12 -172 -77 -260 -156 -99 -88 -206 -148 -273 -154 -55 -5
-128 31 -161 79 -45 66 -25 152 42 180 37 16 83 3 92 -26 9 -27 -20 -69 -56
-82 -34 -13 -35 -18 -9 -42 24 -21 76 -16 115 12 29 21 65 89 65 122 0 35 -36
87 -78 113 -56 35 -156 33 -204 -4 -58 -44 -83 -107 -83 -208 0 -94 12 -125
67 -181 55 -54 110 -74 213 -74 124 0 172 25 325 172 140 133 194 164 296 171
91 6 136 -9 190 -63 88 -88 99 -241 22 -312 -79 -74 -238 -67 -268 13 -17 45
-12 112 9 124 17 9 18 7 12 -18 -18 -62 49 -119 115 -99 53 16 69 41 69 107 0
51 -4 63 -30 90 -16 17 -43 34 -60 39 -107 29 -284 -50 -349 -156 -73 -122
-69 -308 8 -377 52 -47 116 -53 166 -17 44 32 39 101 -9 125 l-29 15 8 -34
c13 -56 -24 -73 -74 -34 -88 70 -71 283 31 380 l35 34 -8 -35 c-40 -169 67
-305 232 -296 186 11 302 169 269 365 -10 58 -87 211 -126 249 -54 53 -93 66
-199 66 -52 0 -129 -4 -170 -9 -107 -12 -131 -12 -162 -2 -31 10 -37 37 -13
57 9 7 15 23 13 34 -4 25 -45 33 -70 14z"/>
<path d="M2874 5940 c-57 -22 -71 -100 -28 -144 49 -49 135 -27 149 39 16 71
-54 132 -121 105z"/>
<path d="M3871 5874 c-70 -59 -13 -169 77 -149 43 9 67 40 67 87 0 78 -83 114
-144 62z"/>
<path d="M2910 5608 c-63 -16 -158 -45 -210 -65 -104 -38 -309 -137 -380 -183
-25 -16 -52 -33 -60 -37 -8 -4 -19 -11 -25 -15 -5 -4 -55 -42 -110 -84 -121
-93 -181 -149 -302 -281 -195 -210 -370 -531 -458 -837 -31 -109 -31 -112 0
-112 21 0 27 7 36 41 157 596 555 1087 1110 1366 91 46 280 122 331 133 67 15
181 46 185 50 2 2 3 15 1 29 l-3 25 -115 -30z"/>
<path d="M3879 5603 c6 -24 16 -29 112 -54 498 -130 938 -449 1221 -884 138
-211 200 -352 286 -645 7 -22 32 -33 54 -23 3 2 -4 43 -17 91 -94 349 -293
689 -558 954 -273 272 -586 453 -961 558 -138 38 -146 38 -137 3z"/>
<path d="M1060 5416 c-30 -7 -73 -22 -95 -34 -22 -12 -56 -29 -76 -37 -46 -20
-95 -68 -122 -119 -17 -33 -21 -59 -20 -136 0 -52 3 -126 8 -165 10 -88 13
-145 7 -167 -6 -25 -40 -33 -61 -14 -40 36 -73 9 -51 -43 14 -34 70 -61 110
-54 68 12 85 93 52 249 -24 116 -21 219 8 299 13 33 26 64 31 69 5 6 0 -16
-11 -48 -50 -140 5 -331 135 -471 164 -176 209 -312 135 -410 -58 -78 -158
-88 -212 -21 -35 42 -15 116 31 116 25 0 58 -32 66 -63 8 -32 16 -34 38 -9 38
42 11 117 -56 157 -54 31 -94 32 -137 3 -49 -34 -75 -91 -74 -164 1 -75 22
-109 94 -148 102 -56 238 -43 313 28 93 88 117 248 54 371 -27 54 -41 71 -158
193 -113 117 -148 177 -156 272 -8 84 12 145 62 196 71 71 187 94 270 54 93
-45 129 -204 63 -277 -25 -27 -114 -41 -147 -23 -28 14 -18 32 12 21 51 -19
109 45 99 109 -14 95 -173 108 -226 19 -24 -41 -25 -131 -2 -184 10 -22 24
-54 31 -71 19 -45 71 -101 119 -129 93 -55 252 -65 330 -22 97 52 110 194 21
227 -26 9 -73 -7 -85 -30 -15 -28 -13 -31 28 -28 33 3 37 0 40 -23 4 -33 -30
-75 -76 -95 -78 -32 -232 -3 -305 57 -41 34 -48 54 -15 43 64 -20 174 2 221
44 100 89 99 265 -2 375 -32 36 -105 73 -157 82 -21 3 -48 8 -59 9 -11 2 -45
-1 -75 -8z"/>
<path d="M5660 5419 c-103 -20 -175 -71 -214 -152 -87 -177 5 -357 182 -359
32 -1 67 2 80 6 30 10 28 -5 -5 -36 -73 -66 -227 -97 -311 -63 -52 22 -82 54
-82 86 0 31 14 39 53 32 29 -6 32 -1 17 27 -12 23 -59 39 -86 29 -38 -14 -64
-57 -60 -100 12 -121 144 -181 311 -142 101 24 186 88 220 167 7 17 21 48 30
68 16 37 20 69 17 137 -2 26 -12 44 -42 73 -36 33 -47 38 -89 38 -80 0 -128
-56 -109 -128 11 -42 60 -74 94 -62 31 12 41 -5 13 -21 -14 -7 -42 -9 -73 -5
-68 8 -97 37 -104 105 -16 171 114 263 282 200 101 -37 154 -129 143 -249 -8
-95 -43 -155 -156 -272 -117 -122 -131 -139 -159 -195 -44 -85 -42 -215 3
-304 64 -123 235 -166 367 -92 62 35 89 76 93 140 7 101 -60 193 -140 193 -40
0 -104 -37 -125 -73 -25 -40 -26 -89 -2 -110 25 -23 29 -22 37 12 6 30 42 61
69 61 43 0 62 -79 29 -117 -63 -71 -162 -56 -223 34 -34 50 -32 133 5 208 26
54 93 143 158 210 105 109 161 310 123 438 -15 51 -12 64 5 20 38 -95 44 -230
16 -336 -23 -85 -18 -191 9 -218 34 -33 96 -30 134 6 38 36 38 78 1 83 -15 2
-28 -3 -33 -12 -13 -23 -43 -20 -55 7 -11 24 -10 61 3 182 12 119 9 245 -7
282 -8 17 -29 48 -47 67 -40 45 -192 121 -268 135 -32 6 -58 11 -58 10 -1 -1
-21 -5 -46 -10z"/>
<path d="M1556 5309 c-45 -48 -55 -66 -50 -82 10 -33 20 -40 35 -24 66 68 119
126 119 130 0 9 -31 37 -40 37 -4 0 -33 -27 -64 -61z"/>
<path d="M5207 5327 c-16 -11 -11 -19 50 -78 69 -66 96 -76 106 -39 3 14 -12
35 -53 74 -61 59 -75 64 -103 43z"/>
<path d="M3328 5245 c-2 -2 -30 -6 -63 -9 -33 -4 -71 -9 -85 -11 -14 -3 -43
-7 -65 -11 -162 -26 -454 -145 -605 -247 -411 -278 -668 -658 -767 -1131 -35
-169 -41 -437 -13 -611 85 -535 399 -991 868 -1260 325 -186 742 -265 1107
-210 17 3 48 7 70 11 130 19 325 84 470 156 455 226 793 643 919 1133 19 77
29 131 45 260 9 68 7 349 -2 390 -3 11 -8 43 -11 70 -19 143 -82 337 -161 497
-85 171 -180 306 -313 442 -282 289 -634 465 -1047 522 -46 6 -342 14 -347 9z"/>
<path d="M1690 5223 c-73 -37 -88 -131 -31 -195 22 -24 37 -32 78 -35 47 -5
54 -3 87 28 28 25 39 45 43 75 13 99 -88 172 -177 127z"/>
<path d="M5060 5209 c-35 -13 -70 -68 -70 -112 0 -54 18 -84 66 -108 85 -41
170 4 178 95 9 94 -82 159 -174 125z"/>
<path d="M1035 4055 c-48 -47 -21 -135 45 -148 60 -13 111 35 104 98 -7 68
-100 100 -149 50z"/>
<path d="M5683 4048 c-29 -32 -37 -65 -22 -99 35 -87 169 -59 169 35 0 75 -98
117 -147 64z"/>
<path d="M614 3984 c-125 -25 -204 -92 -204 -171 0 -48 -32 -89 -60 -76 -31
14 -86 10 -125 -9 -61 -31 -158 -102 -194 -143 -40 -45 -30 -70 32 -82 40 -8
42 -10 39 -42 -5 -42 20 -69 69 -77 25 -4 44 -15 54 -30 8 -13 29 -26 50 -30
19 -3 34 -9 33 -13 -2 -21 5 -33 25 -42 18 -8 22 -17 19 -39 -6 -41 38 -84 79
-78 18 3 29 0 29 -7 0 -14 39 -50 64 -59 11 -4 32 1 51 13 l33 19 7 -26 c3
-14 18 -39 32 -56 22 -26 24 -37 20 -77 -3 -26 -3 -49 0 -52 17 -18 102 50
103 81 0 27 60 72 96 72 21 0 40 7 50 19 13 14 25 18 54 14 49 -7 80 24 80 79
0 48 28 81 73 86 17 1 44 12 59 22 15 11 42 20 59 20 40 0 115 35 123 57 4 9
2 21 -4 27 -19 19 -11 36 18 36 33 0 72 25 72 46 0 9 -17 30 -37 47 -21 18
-71 64 -113 103 -41 39 -85 76 -97 83 -28 14 -96 14 -111 -1 -9 -9 -13 -7 -18
8 -34 99 -84 174 -148 222 -76 56 -202 79 -312 56z m171 -76 c7 -17 19 -23 45
-24 56 -2 57 -3 70 -33 6 -16 22 -32 34 -35 31 -8 55 -68 56 -141 0 -33 0 -75
1 -93 0 -39 -19 -68 -34 -53 -6 6 -9 31 -9 56 1 26 -4 55 -13 68 -12 19 -12
29 -3 53 16 43 -6 115 -30 100 -8 -4 -8 -16 0 -37 17 -49 -17 -98 -58 -82 -10
4 -12 8 -5 13 20 12 31 68 16 80 -11 9 -16 5 -23 -22 -5 -19 -16 -34 -26 -36
-14 -3 -16 0 -9 15 13 26 7 84 -9 94 -10 7 -14 -4 -18 -47 -6 -64 -21 -78 -68
-65 -1 1 4 13 11 29 15 29 9 73 -11 80 -8 2 -12 -7 -12 -26 0 -16 -7 -47 -16
-67 -12 -29 -13 -44 -5 -61 12 -28 43 -45 60 -34 16 9 6 30 -15 30 -8 0 -14 3
-14 8 0 4 20 8 45 10 35 2 51 -3 68 -19 16 -15 30 -19 54 -16 27 5 33 2 41
-21 6 -15 9 -38 8 -52 -1 -14 2 -40 8 -59 8 -27 7 -35 -5 -45 -9 -6 -28 -33
-43 -59 -32 -53 -82 -97 -113 -97 -12 0 -52 9 -89 21 -115 35 -159 102 -122
184 13 30 17 30 56 8 27 -16 31 -16 66 1 31 15 35 20 26 36 -22 40 -66 50
-114 25 -28 -15 -31 -14 -49 3 -29 29 -14 58 39 78 51 19 67 42 58 79 -8 32
-29 27 -29 -6 0 -19 -10 -29 -44 -45 -24 -12 -50 -30 -58 -40 -20 -27 -16 -71
8 -87 19 -14 19 -17 6 -62 l-13 -48 -23 28 c-14 19 -21 39 -18 59 3 30 -2 67
-17 114 -6 19 -4 22 18 22 26 0 26 0 40 104 11 81 58 119 153 122 35 1 67 5
70 8 15 14 49 5 58 -16z m-435 -203 c18 -11 38 -60 49 -119 12 -63 47 -120 85
-137 12 -6 31 -26 41 -45 22 -41 48 -59 133 -90 110 -40 138 -33 243 61 34 30
70 55 80 55 22 0 24 2 60 102 34 96 52 126 81 137 44 16 80 -1 147 -67 36 -35
79 -75 95 -87 33 -26 30 -55 -6 -55 -47 0 -176 51 -192 76 -19 28 -36 31 -36
6 0 -25 38 -59 85 -76 39 -14 39 -14 15 -23 -34 -14 -56 -6 -94 33 -33 34 -56
43 -56 23 0 -19 76 -89 99 -90 65 -4 130 -41 111 -64 -29 -35 -149 -3 -205 55
-29 30 -55 39 -55 19 0 -15 70 -79 98 -90 34 -13 22 -33 -21 -37 -29 -3 -39 2
-53 22 -16 26 -44 35 -44 15 0 -6 9 -24 21 -40 38 -54 -8 -68 -64 -19 -39 34
-47 36 -47 15 0 -20 46 -64 75 -71 27 -7 30 -16 15 -44 -14 -26 -45 -41 -65
-34 -9 4 -25 26 -36 50 -17 42 -32 54 -43 36 -2 -4 5 -26 15 -50 21 -46 19
-62 -11 -62 -13 0 -22 9 -26 28 -20 94 -41 99 -35 10 2 -47 0 -58 -12 -58 -25
0 -46 28 -52 68 -9 54 -14 64 -25 57 -16 -10 -11 -67 10 -114 24 -52 25 -84 5
-101 -18 -15 -18 -16 -61 51 -27 42 -34 64 -34 101 0 26 -2 48 -5 48 -3 0 -24
-19 -45 -41 -38 -40 -41 -41 -62 -26 -26 17 -25 42 3 73 14 15 16 23 7 32 -8
8 -19 4 -45 -18 -38 -34 -78 -39 -92 -12 -14 26 10 58 50 66 36 7 35 33 -2 27
-53 -8 -74 -6 -77 10 -2 10 6 19 19 22 38 10 10 29 -35 24 -73 -9 -103 34 -32
47 42 8 81 35 68 48 -6 6 -18 5 -33 -3 -13 -7 -42 -16 -64 -20 -22 -4 -53 -10
-69 -14 -18 -4 -37 0 -52 10 -44 29 -31 37 81 49 69 7 105 18 105 31 0 10 -17
12 -74 8 -43 -3 -76 -2 -79 4 -4 6 16 10 48 10 39 0 61 5 75 18 25 22 12 42
-17 26 -31 -16 -68 -20 -109 -11 -27 6 -48 5 -72 -6 -43 -18 -61 -18 -68 0 -9
23 64 85 160 137 48 27 97 32 126 14z"/>
<path d="M793 3590 c-12 -5 -27 -18 -33 -29 -9 -18 -6 -22 26 -36 47 -19 54
-19 84 5 l25 20 -28 25 c-30 27 -40 29 -74 15z"/>
<path d="M670 3463 c0 -16 43 -27 76 -19 40 11 22 30 -29 31 -32 0 -47 -4 -47
-12z"/>
<path d="M664 3409 c-7 -13 31 -29 70 -29 30 0 56 14 45 24 -9 8 -110 12 -115
5z"/>
<path d="M5964 3924 c-103 -30 -164 -87 -171 -161 -8 -70 -22 -82 -91 -76 -49
4 -64 1 -110 -24 -70 -38 -178 -122 -194 -151 -14 -28 -2 -55 28 -60 57 -9 59
-10 59 -48 0 -40 29 -70 75 -76 14 -2 36 -15 48 -30 16 -19 33 -28 53 -28 21
0 29 -5 29 -18 0 -10 11 -28 24 -39 17 -15 23 -28 19 -43 -8 -31 32 -70 74
-70 18 0 33 -4 33 -9 0 -4 12 -20 26 -35 32 -32 76 -34 102 -5 l20 20 6 -27
c4 -15 18 -42 32 -60 21 -27 25 -42 22 -81 -3 -46 -2 -48 22 -45 30 3 68 37
85 78 15 37 65 75 91 70 27 -5 64 11 64 28 0 11 8 12 36 6 49 -11 86 20 88 76
1 53 23 79 71 88 22 4 51 14 64 23 13 8 42 17 63 19 44 5 88 24 108 49 11 13
11 21 2 35 -13 22 0 36 38 38 14 1 33 11 43 24 19 22 19 23 -25 62 -23 21 -74
69 -113 106 -38 37 -81 72 -94 79 -32 17 -92 23 -108 10 -14 -12 -33 -4 -33
15 0 31 -64 137 -106 176 -73 67 -142 94 -249 95 -49 1 -108 -4 -131 -11z
m198 -69 c12 -27 15 -28 67 -29 27 -1 38 -7 51 -31 9 -16 26 -31 37 -33 28 -4
54 -66 53 -127 -1 -27 1 -66 3 -86 4 -45 -7 -79 -28 -79 -11 0 -15 12 -15 50
0 28 -6 63 -14 79 -9 17 -11 32 -5 42 13 21 11 73 -4 94 -18 24 -41 11 -27
-15 21 -40 -2 -90 -42 -90 -20 0 -23 11 -9 25 15 15 21 64 10 71 -13 8 -19 2
-24 -25 -10 -53 -36 -56 -31 -3 4 41 -8 82 -23 82 -6 0 -10 -20 -9 -44 3 -50
-14 -76 -48 -76 -22 0 -22 2 -10 33 7 17 12 38 10 45 -1 6 -2 17 -3 22 0 6 -7
10 -15 10 -10 0 -14 -10 -14 -28 1 -15 -6 -41 -14 -57 -9 -17 -14 -38 -12 -48
4 -27 34 -57 56 -57 26 0 23 26 -4 35 -19 6 -16 9 21 15 38 6 50 3 79 -16 25
-18 39 -21 57 -14 20 7 25 5 34 -18 7 -15 11 -41 10 -57 0 -17 2 -47 6 -67 5
-25 4 -38 -3 -38 -6 0 -25 -25 -42 -55 -57 -99 -105 -116 -216 -75 -100 36
-129 72 -119 144 9 55 26 74 48 51 18 -18 56 -19 92 -3 30 14 31 22 5 48 -21
21 -94 28 -105 10 -9 -14 -41 -12 -54 4 -20 24 3 63 46 76 43 14 63 34 63 66
0 25 -29 56 -31 33 -1 -8 -1 -20 0 -27 3 -20 -19 -42 -41 -42 -27 0 -78 -53
-78 -81 0 -13 9 -33 21 -45 19 -20 19 -26 8 -63 -7 -23 -16 -41 -20 -41 -16 0
-32 46 -35 100 -1 30 -7 67 -13 83 -9 23 -8 27 8 27 28 0 38 19 44 81 12 112
55 153 160 150 34 0 69 3 77 9 23 15 29 12 42 -15z m-428 -211 c24 -24 33 -44
46 -109 13 -68 41 -116 82 -140 15 -9 35 -29 43 -45 20 -38 59 -65 141 -94 47
-17 80 -23 104 -20 36 6 107 52 150 99 14 15 41 33 60 41 32 13 38 21 59 89
58 188 108 199 259 57 92 -87 104 -105 78 -115 -17 -7 -25 -6 -114 22 -54 16
-78 29 -94 51 -25 34 -38 38 -38 12 0 -26 47 -72 81 -79 38 -7 46 -21 17 -28
-34 -9 -73 9 -99 44 -26 35 -39 39 -39 14 1 -40 61 -84 131 -97 42 -7 86 -43
71 -58 -17 -17 -94 -13 -132 5 -19 9 -51 30 -70 47 -19 16 -41 30 -48 30 -23
0 6 -39 59 -76 45 -33 60 -53 42 -55 -5 0 -18 -2 -30 -5 -15 -2 -34 6 -57 26
-18 17 -36 30 -40 30 -11 0 -6 -23 8 -39 25 -29 29 -58 7 -64 -19 -5 -81 28
-81 44 0 5 -7 9 -15 9 -8 0 -15 -6 -15 -14 0 -17 56 -66 76 -66 23 0 27 -26 9
-54 -12 -17 -26 -26 -44 -26 -22 0 -31 8 -49 45 -12 25 -29 45 -37 45 -13 0
-13 -4 1 -37 24 -54 23 -78 -1 -78 -15 0 -23 11 -34 53 -8 32 -19 52 -28 52
-9 0 -12 -7 -9 -17 9 -30 10 -88 2 -101 -19 -32 -66 35 -66 95 0 33 -24 24
-28 -10 -2 -14 6 -47 17 -73 12 -26 21 -60 21 -76 0 -35 -29 -50 -44 -23 -6
10 -22 31 -36 48 -17 21 -25 44 -26 79 -2 28 -5 53 -9 56 -3 4 -21 -10 -40
-31 -36 -39 -53 -45 -73 -25 -17 17 -15 36 8 65 18 23 19 43 2 43 -4 0 -20
-11 -36 -25 -37 -32 -63 -40 -82 -24 -26 22 -13 60 25 73 19 6 36 17 39 24 4
14 -11 15 -53 4 -17 -5 -36 -7 -42 -5 -18 6 -16 33 1 33 17 0 30 30 13 31 -7
1 -28 0 -47 -1 -19 0 -44 6 -55 14 l-20 15 20 7 c75 26 108 45 97 56 -8 8 -19
7 -43 -2 -17 -7 -43 -15 -58 -17 -14 -2 -44 -6 -66 -9 -27 -4 -46 -1 -60 10
-29 22 -11 33 66 40 88 9 124 20 124 37 0 16 -2 16 -65 5 -26 -4 -55 -3 -70 3
-22 9 -19 10 23 10 47 1 107 23 107 40 0 18 -14 19 -42 5 -23 -12 -46 -14 -98
-9 -45 5 -70 3 -74 -4 -9 -15 -63 -14 -72 1 -9 14 60 75 141 122 65 40 123 47
149 20z"/>
<path d="M6180 3539 c-14 -5 -31 -18 -38 -29 -11 -18 -8 -22 28 -40 37 -19 42
-19 71 -5 37 20 35 43 -6 66 -22 12 -37 14 -55 8z"/>
<path d="M6050 3410 c0 -22 51 -33 83 -18 31 16 18 27 -33 26 -27 0 -50 -4
-50 -8z"/>
<path d="M6050 3344 c0 -8 6 -14 13 -15 6 0 21 -2 32 -5 30 -6 67 5 63 18 -3
7 -27 13 -56 14 -40 2 -52 -1 -52 -12z"/>
<path d="M1345 2988 c20 -100 85 -278 151 -418 282 -592 826 -1027 1472 -1174
l62 -14 0 28 c0 27 -3 29 -92 50 -511 125 -958 443 -1259 895 -108 163 -226
431 -285 653 -2 6 -15 12 -29 12 -25 0 -26 -2 -20 -32z"/>
<path d="M5476 2923 c-70 -250 -205 -511 -377 -729 -60 -75 -214 -235 -289
-299 -230 -197 -564 -366 -867 -440 -69 -16 -73 -19 -73 -45 l0 -28 63 14
c769 178 1386 767 1601 1529 13 46 21 87 18 90 -3 3 -15 5 -27 5 -20 0 -26
-12 -49 -97z"/>
<path d="M5766 2991 c-41 -25 -58 -81 -36 -122 12 -22 60 -49 81 -45 59 10 91
46 85 96 -7 64 -78 103 -130 71z"/>
<path d="M933 2982 c-13 -9 -27 -31 -32 -47 -25 -87 79 -153 142 -89 45 44 39
107 -12 137 -37 22 -70 21 -98 -1z"/>
<path d="M975 2672 c-94 -10 -175 -58 -200 -118 -31 -74 7 -200 70 -234 84
-45 205 26 205 118 0 28 -21 62 -38 62 -4 0 -14 -15 -22 -33 -8 -17 -27 -38
-42 -47 -24 -13 -29 -13 -47 4 -47 43 -13 127 60 146 55 15 117 -13 156 -71
63 -96 15 -237 -134 -394 -79 -83 -122 -158 -149 -260 -16 -59 -18 -147 -4
-194 5 -19 8 -37 5 -39 -2 -2 -12 25 -22 59 -24 79 -23 195 2 296 21 86 17
173 -10 203 -38 42 -112 33 -152 -19 -36 -47 9 -92 51 -52 19 18 25 19 41 8
22 -17 25 -67 9 -202 -16 -142 -11 -243 15 -292 23 -47 94 -111 131 -120 14
-3 36 -14 50 -23 72 -51 192 -63 285 -31 77 27 129 72 162 139 23 48 28 69 27
132 0 105 -39 170 -124 207 -42 19 -132 25 -166 13 -52 -20 -7 38 54 69 54 28
147 49 196 45 82 -7 154 -62 144 -110 -3 -15 -12 -19 -41 -19 -43 0 -47 -12
-14 -43 68 -64 157 19 126 118 -31 95 -153 142 -292 110 -119 -26 -192 -86
-245 -200 -70 -150 -34 -271 86 -287 101 -14 163 94 97 167 -21 24 -63 34 -80
20 -8 -7 -16 -7 -19 -2 -19 32 90 43 146 16 43 -22 64 -122 39 -188 -35 -89
-102 -132 -193 -122 -191 20 -281 191 -197 375 21 46 56 90 142 180 159 165
195 246 172 381 -14 86 -39 134 -89 174 -56 45 -123 65 -191 58z"/>
<path d="M5770 2663 c-98 -25 -163 -99 -185 -212 -27 -134 13 -227 172 -392
82 -86 121 -135 140 -176 62 -135 31 -281 -73 -342 -53 -32 -144 -47 -192 -33
-82 25 -131 94 -132 185 0 96 40 137 135 137 42 0 77 -22 56 -34 -5 -4 -13 -1
-16 5 -9 13 -54 3 -77 -18 -46 -41 -38 -121 15 -153 61 -37 143 -14 181 50 53
91 -19 296 -129 367 -89 58 -233 79 -319 46 -60 -22 -103 -73 -110 -127 -11
-91 76 -153 132 -93 30 32 29 49 -2 37 -37 -14 -60 8 -51 48 8 40 72 80 135
85 84 7 197 -29 253 -81 25 -24 38 -50 18 -37 -23 14 -119 14 -161 -1 -95 -32
-145 -108 -144 -219 1 -120 56 -207 163 -258 37 -17 64 -22 136 -22 87 1 93 2
187 49 158 78 200 145 193 307 -2 45 -7 105 -11 133 -14 111 -12 168 9 189 19
19 19 18 42 -3 29 -27 65 -20 65 13 -1 40 -43 77 -95 84 -29 4 -40 0 -65 -25
-27 -27 -30 -37 -30 -89 1 -32 9 -96 19 -143 21 -99 19 -210 -5 -283 -9 -27
-18 -46 -21 -43 -3 2 1 21 7 42 36 107 -27 317 -123 416 -119 121 -192 250
-191 335 1 104 95 187 183 163 73 -19 107 -103 60 -146 -18 -17 -23 -17 -47
-4 -15 9 -34 30 -42 47 -18 39 -36 42 -51 9 -36 -78 71 -191 160 -169 44 11
69 33 95 85 31 62 29 142 -4 188 -30 42 -99 80 -157 86 -26 3 -52 7 -58 8 -5
2 -35 -3 -65 -11z"/>
<path d="M1671 1857 c-54 -27 -79 -93 -58 -151 44 -125 237 -95 237 36 0 98
-94 159 -179 115z"/>
<path d="M5032 1836 c-34 -18 -62 -66 -62 -104 0 -94 90 -151 176 -113 91 41
95 172 7 220 -28 15 -92 14 -121 -3z"/>
<path d="M1479 1639 c-10 -19 -4 -28 52 -80 63 -58 84 -65 113 -38 10 9 -121
138 -141 139 -7 0 -17 -10 -24 -21z"/>
<path d="M5242 1580 c-53 -58 -62 -73 -52 -85 22 -27 47 -16 99 44 46 53 50
62 41 85 -5 14 -13 26 -17 26 -5 0 -37 -32 -71 -70z"/>
<path d="M1910 1603 c-57 -21 -78 -90 -40 -131 30 -32 52 -29 39 5 -8 21 -6
30 8 44 17 17 20 17 50 3 45 -23 76 -89 74 -162 -1 -76 -34 -171 -75 -218 -38
-43 -50 -43 -37 2 11 41 4 119 -15 160 -41 85 -125 131 -227 121 -119 -11
-192 -62 -240 -166 -23 -52 -29 -78 -28 -131 1 -74 3 -83 56 -194 72 -152 131
-190 290 -188 55 1 109 3 121 6 58 12 172 17 197 7 30 -12 36 -41 12 -61 -22
-19 -15 -54 12 -58 34 -5 83 46 88 91 4 33 1 43 -24 68 -26 26 -36 29 -93 29
-35 0 -92 -7 -128 -16 -87 -21 -210 -21 -284 0 -32 9 -56 19 -54 21 2 3 18 1
36 -4 44 -13 179 -6 228 12 82 30 144 68 225 139 102 89 173 135 235 154 64
19 90 18 141 -7 48 -23 82 -64 93 -114 14 -62 -39 -135 -98 -135 -26 0 -62 29
-62 49 0 24 48 71 71 71 34 0 18 33 -23 49 -57 22 -157 -65 -158 -137 -1 -104
148 -181 256 -133 100 45 146 217 90 337 -13 28 -41 65 -62 83 -81 66 -229 83
-330 37 -68 -31 -85 -45 -204 -160 -108 -104 -149 -132 -223 -152 -109 -29
-191 -10 -259 60 -70 72 -87 207 -37 280 69 101 261 107 288 8 14 -47 14 -88
0 -113 -14 -26 -31 -15 -20 14 19 50 -28 101 -92 100 -114 -3 -134 -173 -27
-228 41 -21 128 -21 177 0 133 57 187 106 224 204 24 64 32 172 17 228 -11 43
-49 98 -79 113 -24 13 -88 21 -109 13z"/>
<path d="M4843 1599 c-111 -32 -146 -233 -67 -390 25 -51 89 -113 137 -134 18
-7 50 -21 72 -31 49 -21 132 -21 175 1 78 40 94 166 26 210 -40 26 -70 27
-107 2 -36 -24 -51 -61 -37 -89 6 -13 5 -18 -6 -18 -26 0 -34 56 -16 120 33
118 261 86 309 -43 16 -40 14 -99 -5 -153 -38 -112 -119 -165 -241 -160 -104
5 -163 37 -288 157 -56 54 -113 107 -126 117 -63 49 -168 83 -235 75 -174 -20
-264 -111 -264 -269 0 -183 150 -284 296 -199 85 50 95 141 23 215 -32 33 -46
40 -78 40 -37 0 -71 -19 -71 -41 0 -5 8 -9 18 -9 23 0 72 -46 72 -69 0 -10 -8
-25 -18 -34 -38 -35 -104 -13 -132 44 -41 80 22 182 128 204 78 16 209 -49
337 -169 68 -64 194 -131 270 -145 51 -10 149 -8 195 3 19 5 17 3 -7 -9 -70
-32 -188 -37 -303 -13 -74 16 -81 17 -110 19 -69 4 -92 -2 -121 -30 -25 -25
-28 -35 -24 -68 5 -42 51 -93 84 -93 27 0 37 37 16 60 -23 25 -15 52 17 61 29
8 67 6 193 -7 249 -26 324 6 404 169 57 118 62 135 62 202 0 183 -139 318
-311 302 -87 -8 -149 -48 -184 -121 -19 -41 -27 -119 -15 -160 11 -38 5 -44
-22 -20 -78 71 -114 245 -70 337 42 88 140 96 109 10 -10 -30 10 -31 40 -3 25
23 29 75 9 100 -31 38 -72 47 -134 29z"/>
<path d="M1460 1510 c-14 -4 -65 -33 -113 -64 -255 -164 -360 -170 -567 -32
-70 46 -108 48 -144 5 -33 -38 -33 -69 -1 -107 46 -55 168 -96 301 -101 102
-4 264 63 402 167 18 14 35 23 38 20 8 -9 -97 -100 -267 -229 -357 -271 -510
-435 -533 -570 -6 -40 6 -52 50 -46 54 7 103 29 160 75 103 82 147 132 457
533 110 143 145 184 152 178 2 -3 -16 -32 -40 -65 -126 -167 -159 -331 -101
-492 24 -68 99 -160 130 -163 6 0 20 -2 30 -4 11 -2 31 8 47 25 44 43 40 89
-15 173 -143 218 -145 287 -17 502 65 108 81 140 81 163 0 27 -21 40 -50 32z"/>
<path d="M5330 1483 c0 -27 21 -68 95 -183 92 -144 118 -248 90 -354 -10 -35
-46 -105 -86 -162 -52 -76 -49 -128 11 -159 44 -23 60 -19 100 24 56 59 85
158 85 291 -1 127 -21 182 -120 336 -35 54 -62 101 -59 103 7 7 59 -55 237
-284 249 -322 415 -480 535 -510 61 -16 72 -11 72 35 0 97 -132 257 -345 420
-279 213 -403 312 -430 341 l-30 33 30 -19 c16 -10 37 -26 47 -34 32 -31 129
-84 195 -108 66 -24 169 -32 233 -19 132 28 243 118 234 190 -4 36 -20 54 -60
65 -39 11 -88 -5 -153 -52 -62 -45 -135 -82 -181 -92 -89 -20 -160 2 -325 100
-126 74 -175 85 -175 38z"/>
<path d="M3282 1268 c-70 -11 -145 -50 -177 -92 -15 -20 -29 -56 -34 -85 -10
-65 -25 -83 -57 -70 -43 16 -79 10 -143 -23 -75 -38 -187 -129 -196 -159 -9
-26 14 -51 47 -53 34 -2 50 -15 43 -36 -13 -42 37 -90 96 -90 10 0 20 -9 24
-20 4 -12 21 -24 46 -30 21 -6 39 -17 39 -25 0 -7 11 -22 23 -32 16 -12 24
-29 24 -51 0 -43 24 -66 68 -66 19 0 35 -4 35 -8 0 -5 11 -20 25 -33 28 -29
85 -34 105 -10 17 21 25 19 27 -6 1 -11 14 -37 29 -56 28 -37 35 -67 23 -94
-5 -9 -3 -23 4 -32 11 -15 15 -15 44 4 17 11 41 40 53 64 24 50 63 80 102 77
17 -1 36 6 48 18 13 13 28 19 40 15 53 -17 103 32 94 92 -3 22 0 32 11 36 8 4
15 12 15 20 0 8 14 14 37 15 20 2 51 11 68 22 16 10 50 21 75 25 81 12 129 55
100 90 -14 16 -2 25 41 30 38 5 61 33 48 56 -5 10 -28 32 -51 51 -24 18 -71
61 -106 96 -35 35 -75 67 -89 73 -37 14 -92 14 -105 1 -9 -9 -18 5 -39 54 -77
182 -231 264 -437 232z m164 -79 c14 -29 19 -31 55 -26 38 5 41 3 65 -34 13
-21 31 -39 39 -39 23 0 45 -54 46 -117 0 -32 1 -77 2 -100 0 -47 -20 -83 -35
-61 -4 7 -7 31 -6 53 1 22 -4 50 -11 62 -7 15 -9 41 -5 72 6 49 -6 91 -27 91
-7 0 -8 -14 -4 -39 7 -45 -5 -76 -34 -84 -24 -6 -34 2 -21 18 13 16 17 69 5
73 -5 2 -14 -10 -19 -27 -14 -48 -36 -40 -31 11 4 41 -10 86 -23 73 -4 -4 -7
-27 -8 -52 0 -50 -21 -75 -54 -66 -18 5 -18 7 -4 35 17 33 11 82 -9 75 -7 -2
-13 -17 -14 -33 -1 -16 -8 -42 -16 -57 -8 -16 -12 -37 -10 -48 7 -27 51 -59
70 -52 13 5 11 11 -13 31 -16 13 -22 22 -14 19 8 -2 27 -1 42 4 20 5 34 2 60
-18 23 -17 41 -23 60 -19 36 7 43 -9 52 -100 5 -58 3 -74 -10 -85 -8 -7 -22
-26 -31 -43 -23 -47 -73 -94 -105 -101 -32 -7 -148 27 -190 57 -37 26 -52 76
-38 127 12 45 19 48 53 27 24 -16 36 -16 80 2 33 14 34 25 5 52 -26 24 -62 26
-102 5 -28 -15 -31 -14 -49 4 -19 19 -19 21 -3 46 9 14 30 28 46 31 39 8 62
36 58 70 -4 39 -26 42 -30 4 -3 -27 -9 -34 -43 -46 -70 -24 -94 -80 -54 -123
19 -21 20 -27 10 -62 -20 -67 -49 -42 -55 47 -2 32 -7 74 -11 92 -7 28 -5 32
13 32 23 0 28 12 38 85 13 104 50 139 155 142 38 1 77 7 87 12 9 6 18 11 19
11 1 0 10 -14 19 -31z m-425 -218 c16 -16 29 -35 30 -43 0 -7 3 -22 5 -33 3
-11 6 -33 9 -48 6 -41 39 -89 74 -110 17 -10 38 -31 46 -47 22 -42 70 -74 151
-100 81 -26 124 -23 165 13 99 84 122 102 147 112 21 10 31 25 46 71 39 124
77 177 122 169 10 -2 25 -4 31 -4 7 -1 58 -43 112 -93 76 -70 97 -96 89 -105
-6 -7 -20 -13 -32 -13 -41 1 -161 50 -183 75 -23 26 -43 33 -43 15 0 -26 35
-60 77 -76 40 -16 43 -19 28 -30 -23 -17 -68 0 -99 37 -26 31 -46 38 -46 16 0
-25 62 -77 104 -87 55 -14 106 -40 106 -55 0 -18 -64 -27 -108 -16 -39 11 -98
49 -119 77 -7 10 -19 14 -29 10 -15 -6 -13 -10 12 -37 16 -17 44 -39 62 -51
42 -26 42 -48 -1 -48 -23 0 -41 8 -57 25 -13 14 -29 25 -37 25 -17 0 -17 -3 8
-45 29 -49 14 -66 -36 -42 -20 9 -38 24 -41 32 -7 18 -34 20 -34 2 0 -18 49
-63 78 -72 39 -11 21 -60 -29 -78 -22 -7 -34 2 -55 47 -11 22 -25 41 -31 44
-17 5 -16 -27 2 -58 22 -39 19 -62 -7 -58 -18 2 -26 14 -37 56 -8 29 -19 51
-25 49 -11 -4 -11 -16 -2 -71 2 -15 2 -34 -1 -42 -14 -38 -60 6 -68 66 -5 40
-22 60 -30 38 -9 -22 0 -69 19 -106 35 -68 7 -144 -31 -84 -10 15 -26 36 -35
46 -21 23 -19 18 -23 79 -1 26 -6 51 -10 55 -4 4 -20 -10 -37 -30 -36 -46 -74
-52 -84 -13 -4 17 1 33 15 51 34 43 9 53 -34 15 -20 -17 -44 -31 -54 -31 -23
0 -44 24 -39 46 3 17 12 23 62 43 46 19 18 35 -33 20 -33 -10 -44 -10 -54 0
-9 10 -7 16 11 28 30 21 28 35 -5 33 -69 -5 -93 0 -93 18 0 12 13 21 43 30 58
16 75 28 60 43 -8 8 -16 8 -32 0 -17 -10 -44 -16 -141 -35 -19 -4 -70 21 -70
34 0 11 24 17 95 24 79 7 113 17 119 33 5 12 -5 13 -63 7 -42 -4 -76 -2 -87 4
-15 8 -8 10 32 9 51 -1 104 21 104 43 0 14 -16 12 -48 -3 -15 -8 -38 -12 -52
-11 -14 2 -40 5 -59 7 -19 2 -52 -3 -73 -11 -33 -13 -41 -13 -48 -2 -12 20 -4
31 58 78 130 97 184 111 233 63z"/>
<path d="M3442 864 c-28 -19 -30 -54 -3 -54 11 0 23 -4 26 -10 10 -17 38 -11
69 13 l29 23 -28 22 c-33 26 -62 28 -93 6z"/>
<path d="M3330 745 c0 -16 52 -29 80 -20 35 11 16 28 -33 30 -33 2 -47 -1 -47
-10z"/>
<path d="M3330 684 c0 -16 37 -27 76 -22 51 6 34 29 -23 32 -39 3 -53 0 -53
-10z"/>
<path d="M2834 562 c-35 -5 -67 -47 -67 -88 0 -100 145 -118 171 -21 18 65
-35 120 -104 109z"/>
<path d="M3829 505 c-53 -29 -59 -107 -11 -145 55 -44 141 -6 142 62 0 42 -20
76 -53 88 -38 13 -46 12 -78 -5z"/>
</g>
</svg>
