<?xml version="1.0" encoding="utf-8"?>
<!-- Generator: Adobe Illustrator 26.0.1, SVG Export Plug-In . SVG Version: 6.00 Build 0)  -->
<svg version="1.1" id="Capa_1" xmlns="http://www.w3.org/2000/svg" xmlns:xlink="http://www.w3.org/1999/xlink" x="0px" y="0px"
	 viewBox="0 0 1024 1024" style="enable-background:new 0 0 1024 1024;" xml:space="preserve">
<style type="text/css">
	.st0{fill:#B6B6B5;stroke:#B6B6B5;stroke-width:3;stroke-miterlimit:10;}
	.st1{fill:#FFFFFF;stroke:#FFFFFF;stroke-width:3;stroke-miterlimit:10;}
	.st2{fill:#FFFFFF;}
</style>
<path class="st0" d="M835.4,505.8c1.7,6.7,6.7,10.3,10.3,15.3c20.3,27.2,40.8,54.4,61.1,81.4c6.7,8.6,6.7,6.7,1.7,17
	c-20.3,33.9-40.8,68-59.5,102c-1.7,3.4-5,5-10.3,5c-10.3-1.7-20.3-1.7-28.9-1.7c-23.9-1.7-47.5-3.4-69.7-5c-5,0-8.6,0-13.6-1.7
	c-3.4,0-3.4,0-3.4,3.4c1.7,23.9,3.4,49.2,5,73.1c1.7,13.6,1.7,27.2,3.4,40.8c0,5-1.7,6.7-5,10.3c-23.9,13.6-47.5,28.9-71.4,42.5
	c-11.9,6.7-23.9,13.6-35.6,20.3c-3.4,1.7-5,0-6.7-1.7c-32.2-23.9-64.5-47.5-95.1-71.4c-3.4-3.4-5-3.4-10.3,0
	c-32.2,23.9-64.5,47.5-96.7,71.4c-3.4,1.7-5,1.7-8.6,0c-25.5-15.3-52.7-30.6-78.1-45.9c-8.6-5-18.6-10.3-27.2-15.3
	c-3.4-1.7-5-5-5-10.3c3.4-33.9,5-68,8.6-102c0-3.4,0-6.7,0-11.9c0-3.4,0-3.4-3.4-3.4c-10.3,0-20.3,1.7-30.6,1.7
	c-10.3,0-20.3,1.7-28.9,1.7c-18.6,1.7-35.6,1.7-54.4,3.4c-5,0-6.7-1.7-8.6-5c-18.6-32.2-39.1-66.2-57.8-98.6
	c-6.7-10.3-6.7-10.3,1.7-20.3c22-30.6,45.9-61.1,68-91.7c1.7-3.4,1.7-5,0-6.7c-17-23.9-35.6-47.5-52.7-71.4
	c-6.7-8.6-13.6-18.6-20.3-27.2c-1.7-3.4-1.7-5,0-6.7c8.6-22,22-44.2,35.6-66.2c8.6-13.6,15.3-27.2,23.9-40.8c1.7-3.4,3.4-5,6.7-3.4
	c18.6,1.7,37.3,3.4,57.8,5c13.6,1.7,27.2,1.7,40.8,3.4c5,0,10.3,0,17,1.7c3.4,0,3.4-1.7,3.4-3.4c-1.7-13.6-1.7-27.2-3.4-40.8
	c0-10.3-1.7-20.3-1.7-30.6c-1.7-13.6-1.7-28.9-3.4-42.5c0-3.4,0-5,3.4-6.7c25.5-15.3,49.2-28.9,74.7-44.2
	c11.9-6.7,23.9-13.6,35.6-20.3c1.7,0,3.4,0,5,0c0,1.7,1.7,1.7,1.7,1.7c18.6,13.6,35.6,27.2,54.4,40.8c15.3,11.9,30.6,22,45.9,33.9
	c-1.7,1.7-1.7,3.4-1.7,6.7c0,33.9,0,68,0,102c0,1.7,0,3.4,0,3.4c-1.7-1.7,0-5,0-6.7c0-28.9,0-56.1,0-85c0-1.7,0-3.4,0-6.7
	c0-1.7,0-3.4-3.4-1.7c-1.7,1.7-5,3.4-6.7,5c-18.6,15.3-37.3,30.6-56.1,45.9c-1.7,1.7-3.4,3.4-1.7,5c3.4,11.9,6.7,23.9,10.3,37.3
	c6.7,22,13.6,44.2,18.6,64.5c10.3,32.2,18.6,64.5,28.9,98.6c3.4,10.3,5,20.3,10.3,28.9c0,8.6,0,15.3,0,23.9c0,5,1.7,6.7,6.7,6.7
	c8.6,0,17,0,25.5,0c1.7,1.7,3.4,1.7,6.7,3.4c28.9,8.6,56.1,17,85,25.5c44.2,13.6,90,27.2,134.2,40.8c3.4,0,3.4,0,5-1.7
	c13.6-17,27.2-33.9,42.5-50.9c3.4-5,6.7-10.3,11.9-15.3c-11.9,0-22,0-32.2,0c1.7-1.7,3.4,0,5,0c10.3,0,20.3,0,30.6,0
	C830.3,509.2,832,507.5,835.4,505.8z M624.7,893.2c1.7,0,3.4-1.7,5-1.7c22-13.6,45.9-27.2,68-40.8c5-3.4,10.3-5,15.3-8.6
	c-18.6-1.7-37.3-3.4-56.1-3.4c-1.7,0-3.4,1.7-5,3.4c-3.4,6.7-6.7,11.9-10.3,18.6C636.7,869.3,631.4,881.2,624.7,893.2L624.7,893.2
	L624.7,893.2z M709.7,719.8L709.7,719.8c-40.8,15.3-78.1,30.6-117.2,45.9c-1.7,1.7-1.7,1.7-1.7,3.4c3.4,18.6,8.6,37.3,11.9,54.4
	c0,1.7,1.7,3.4,3.4,3.4c13.6,0,27.2,1.7,40.8,1.7c3.4,0,5-1.7,6.7-3.4c13.6-25.5,28.9-52.7,42.5-78.1
	C701.2,738.5,706.2,730.1,709.7,719.8C711.4,719.8,711.4,719.8,709.7,719.8C711.4,718.1,709.7,719.8,709.7,719.8z M295.2,707.9
	C295.2,707.9,296.9,707.9,295.2,707.9C296.9,707.9,296.9,707.9,295.2,707.9c0-1.7,0-3.4,0-5c-6.7-18.6-15.3-39.1-22-57.8
	c-6.7-18.6-13.6-37.3-22-54.4c0-1.7,0-5-5-3.4c-18.6,3.4-35.6,6.7-54.4,11.9c-3.4,0-3.4,1.7-3.4,5c0,13.6-1.7,27.2-1.7,40.8
	c0,3.4,1.7,3.4,3.4,5c23.9,13.6,47.5,25.5,71.4,39.1C271.4,694.3,283.3,701.2,295.2,707.9z M308.8,719.8L308.8,719.8
	C307.1,719.8,307.1,719.8,308.8,719.8c5,11.9,11.9,23.9,17,33.9c13.6,23.9,25.5,47.5,39.1,71.4c1.7,3.4,3.4,5,6.7,5
	c6.7,0,13.6,0,20.3-1.7c6.7,0,13.6-1.7,18.6-1.7c3.4,0,3.4-1.7,3.4-3.4c3.4-17,6.7-33.9,10.3-50.9c1.7-6.7,1.7-6.7-5-8.6
	c-30.6-11.9-61.1-23.9-91.7-35.6C324.1,724.9,317.2,721.5,308.8,719.8z M429.4,252.7c-1.7,0-1.7,1.7-3.4,1.7
	c-39.1,15.3-78.1,30.6-117.2,45.9c-1.7,1.7-3.4,1.7-5,5c-15.3,39.1-30.6,79.8-47.5,118.9c-1.7,3.4,0,5,3.4,5
	c42.5,11.9,86.7,25.5,129.2,39.1c37.3,11.9,74.7,22,112,33.9c1.7,0,1.7,1.7,3.4,0c1.7-1.7,0-1.7,0-3.4c-8.6-27.2-17-54.4-23.9-81.4
	c-11.9-39.1-22-76.4-33.9-115.6c-5-15.3-8.6-28.9-13.6-44.2C431.1,254.4,431.1,252.7,429.4,252.7z M504.1,514.2
	c0-3.4-1.7-1.7-3.4-1.7c-32.2,10.3-62.8,18.6-95.1,28.9c-49.2,13.6-96.7,28.9-146.1,42.5c-5,1.7-5,3.4-3.4,6.7
	c5,11.9,8.6,23.9,13.6,33.9c10.3,27.2,22,54.4,32.2,81.4c1.7,3.4,1.7,5,5,5c6.7,1.7,11.9,5,18.6,6.7c32.2,13.6,64.5,25.5,98.6,39.1
	c3.4,1.7,5,1.7,6.7-3.4c5-15.3,10.3-32.2,13.6-47.5c17-56.1,33.9-113.9,50.9-169.8C498.9,529.5,500.8,521.1,504.1,514.2z M589.1,759
	c0,0,1.7,0,1.7-1.7c6.7-3.4,15.3-5,22-8.6c32.2-13.6,64.5-25.5,96.7-39.1c1.7-1.7,3.4-1.7,3.4-3.4c15.3-39.1,30.6-79.8,47.5-118.9
	c1.7-3.4,1.7-3.4-1.7-5c-22-6.7-44.2-13.6-66.2-20.3c-33.9-10.3-66.2-20.3-100.3-30.6c-25.5-6.7-49.2-15.3-74.7-22
	c-3.4-1.7-5,0-3.4,3.4c10.3,32.2,18.6,62.8,28.9,95.1c10.3,35.6,20.3,69.7,30.6,105.3c3.4,13.6,8.6,27.2,11.9,40.8
	C587.3,757.3,587.3,760.6,589.1,759z M196.6,510.9c3.4,3.4,6.7,6.7,8.6,11.9c15.3,17,28.9,33.9,42.5,50.9c1.7,3.4,5,5,8.6,3.4
	c37.3-11.9,74.7-22,113.9-33.9c32.2-10.3,66.2-18.6,98.6-28.9c5-1.7,10.3-3.4,13.6-5C386.9,509.2,291.9,509.2,196.6,510.9z
	 M480.3,502.5c0-1.7-1.7-1.7-3.4-1.7c-8.6-3.4-18.6-5-27.2-8.6c-33.9-10.3-68-20.3-100.3-30.6s-62.8-18.6-95.1-28.9
	c-3.4-1.7-5,0-6.7,1.7c-13.6,20.3-28.9,37.3-42.5,56.1c-3.4,3.4-6.7,6.7-8.6,11.9C291.9,502.5,386.9,502.5,480.3,502.5z
	 M505.8,534.7L505.8,534.7c-10.3,32.2-20.3,66.2-30.6,98.6c-11.9,42.5-25.5,85-37.3,127.5c-1.7,3.4,0,5,1.7,6.7
	c17,13.6,33.9,27.2,50.9,40.8c5,3.4,10.3,8.6,15.3,11.9C505.8,723.2,505.8,629.8,505.8,534.7z M512.5,818.4c1.7,0,3.4-1.7,3.4-1.7
	c20.3-17,42.5-33.9,62.8-50.9c1.7-1.7,1.7-3.4,1.7-5c-3.4-10.3-6.7-22-10.3-32.2c-15.3-50.9-30.6-103.6-45.9-154.5
	c-3.4-13.6-8.6-25.5-11.9-39.1l0,0C512.5,628.1,512.5,723.2,512.5,818.4z M371.6,181.4c-3.4-1.7-5,1.7-6.7,3.4
	c-18.6,33.9-37.3,68-56.1,102c0,1.7-1.7,3.4-1.7,3.4c1.7,1.7,3.4,0,3.4,0c17-6.7,35.6-13.6,52.7-20.3c20.3-8.6,40.8-15.3,61.1-23.9
	c1.7,0,3.4-1.7,1.7-3.4c-3.4-18.6-8.6-37.3-11.9-56.1c0-1.7-1.7-3.4-3.4-3.4C398.8,183,385.2,181.4,371.6,181.4z M721.5,707.9
	C723.1,707.9,723.1,707.9,721.5,707.9c37.3-18.6,73.1-39.1,108.7-57.8c1.7-1.7,3.4-3.4,3.4-5c0-13.6-1.7-27.2-1.7-42.5
	c0-1.7,0-3.4-3.4-3.4c-6.7-1.7-11.9-1.7-18.6-3.4c-11.9-1.7-23.9-5-35.6-6.7c-3.4,0-5,0-5,3.4c-1.7,5-5,10.3-6.7,17
	c-10.3,25.5-20.3,49.2-30.6,74.7C728.4,690.9,725,699.5,721.5,707.9z M295.2,305.3C295.2,303.6,295.2,303.6,295.2,305.3
	c-1.7,0-3.4,0-5,1.7c-33.9,18.6-69.7,37.3-103.6,57.8c-1.7,1.7-3.4,3.4-3.4,5c0,13.6,1.7,27.2,1.7,40.8c0,3.4,1.7,3.4,3.4,5
	c17,3.4,35.6,6.7,52.7,10.3c3.4,0,5,0,5-3.4c10.3-27.2,22-54.4,32.2-81.4C286.6,327.5,291.9,315.6,295.2,305.3z M714.8,730.1
	c-1.7,1.7-3.4,3.4-3.4,5c-8.6,15.3-17,32.2-25.5,47.5s-17,28.9-23.9,44.2c-1.7,3.4-1.7,3.4,1.7,3.4s8.6,0,11.9,0
	c15.3,0,28.9,1.7,44.2,1.7c5,0,5,0,5-5c-1.7-23.9-3.4-45.9-5-69.7C716.4,750.4,714.8,740.1,714.8,730.1z M733.4,711.2
	c1.7,0,1.7,0,3.4,0c18.6,1.7,37.3,1.7,54.4,3.4c13.6,1.7,28.9,1.7,42.5,3.4c3.4,0,5,0,3.4-3.4c0-11.9-1.7-23.9-1.7-35.6
	c0-6.7-1.7-11.9-1.7-18.6c0-5-1.7-5-5-1.7c-22,11.9-44.2,23.9-64.5,35.6C753.9,699.5,743.6,704.5,733.4,711.2z M285,301.9
	C285,301.9,285,300.3,285,301.9c-11.9-1.7-22-1.7-33.9-3.4c-22-1.7-44.2-3.4-66.2-5c-3.4,0-5,0-5,5c1.7,18.6,1.7,37.3,3.4,54.4
	c0,3.4,1.7,3.4,3.4,1.7c18.6-10.3,39.1-22,59.5-32.2C259.6,315.6,271.4,308.8,285,301.9z M305.5,730.1
	C305.5,731.7,305.5,731.7,305.5,730.1c-1.7,15.3-1.7,27.2-3.4,40.8c-1.7,18.6-3.4,39.1-5,57.8c0,3.4,0,5,3.4,5
	c18.6-1.7,35.6-1.7,54.4-3.4c6.7,0,6.7,0,3.4-5c-15.3-28.9-30.6-57.8-47.5-85C308.8,736.8,307.1,733.4,305.5,730.1z M303.6,283.3
	c5-10.3,10.3-20.3,15.3-28.9c11.9-23.9,25.5-45.9,37.3-69.7c1.7-3.4,1.7-5-1.7-5c-8.6,0-15.3,0-23.9-1.7c-8.6,0-15.3,0-23.9-1.7
	c-11.9-1.7-11.9,0-11.9,11.9c1.7,18.6,3.4,39.1,5,57.8C301.9,257.8,303.6,269.7,303.6,283.3z M285,711.2
	C285,711.2,285,709.6,285,711.2c-32.2-18.6-64.5-35.6-96.7-54.4c-3.4-1.7-3.4,0-3.4,1.7c-1.7,18.6-1.7,35.6-3.4,54.4c0,5,1.7,5,5,5
	c22-1.7,42.5-3.4,64.5-5C263,713.1,273,713.1,285,711.2z M120.2,405.6C120.2,407.3,120.2,407.3,120.2,405.6
	c20.3,28.9,42.5,57.8,62.8,86.7c0-22-1.7-42.5-1.7-64.5c0-10.3,0-10.3-10.3-11.9C154.1,412.5,137.2,408.9,120.2,405.6z M495.6,181.4
	C495.6,181.4,495.6,179.7,495.6,181.4c-28.9-22-56.1-42.5-85-64.5c0,1.7,0,3.4,0,3.4c3.4,18.6,6.7,35.6,10.3,54.4
	c0,1.7,1.7,3.4,3.4,3.4c10.3,0,20.3,1.7,30.6,1.7C468.4,179.7,482,179.7,495.6,181.4z M835.4,519.5
	C835.4,519.5,833.7,519.5,835.4,519.5c-1.7,1.7-1.7,1.7-1.7,3.4c1.7,22,1.7,45.9,3.4,68c0,3.4,1.7,3.4,3.4,3.4
	c10.3,1.7,20.3,3.4,28.9,6.7c8.6,1.7,17,3.4,27.2,5C877.8,575.4,855.7,548.3,835.4,519.5z M120.2,605.9c1.7,0,1.7,0,3.4,0
	c18.6-3.4,35.6-6.7,54.4-11.9c3.4,0,3.4-1.7,3.4-3.4c1.7-20.3,1.7-40.8,3.4-61.1c0-3.4,0-6.7,0-10.3c0,0,0,0-1.7,0
	C162.7,548.3,140.7,577.2,120.2,605.9z M497.2,832C495.6,832,495.6,832,497.2,832c-11.9,0-22,0-32.2,0c-11.9,0-25.5,1.7-37.3,1.7
	c-3.4,0-5,1.7-5,5c-1.7,10.3-3.4,20.3-6.7,28.9c-1.7,8.6-3.4,17-5,27.2C439.7,874.3,468.4,852.3,497.2,832z M609.5,896.5
	c-3.4-20.3-8.6-39.1-11.9-59.5c0-1.7-1.7-3.4-3.4-3.4c-5,0-10.3,0-13.6,0c-8.6,0-18.6-1.7-27.2-1.7c-10.3,0-18.6,0-28.9,0
	C551.7,852.3,578.9,874.3,609.5,896.5z M244.1,431.1c-1.7,0-3.4-1.7-5-1.7c-15.3-3.4-30.6-6.7-45.9-8.6c-6.7-1.7-6.7-1.7-5,5
	c1.7,22,1.7,44.2,3.4,66.2c0,0,0,1.7,1.7,1.7C208.5,473.6,225.5,453.1,244.1,431.1z M774.2,580.6c17,3.4,33.9,6.7,50.9,10.3
	c6.7,1.7,5,0,5-5c-1.7-18.6-1.7-39.1-3.4-57.8c0-3.4,0-8.6-1.7-13.6C808.1,538.1,791.2,558.4,774.2,580.6z M191.6,515.9L191.6,515.9
	c-1.7,3.4-1.7,6.7-1.7,8.6c-1.7,20.3-1.7,42.5-3.4,62.8c0,3.4,0,3.4,3.4,3.4c15.3-3.4,32.2-6.7,47.5-10.3c5-1.7,5-1.7,1.7-5
	c-6.7-6.7-11.9-15.3-18.6-22C211.9,541.4,201.8,529.5,191.6,515.9z M519.4,823.4L519.4,823.4c1.7,1.7,3.4,1.7,5,1.7
	c22,1.7,44.2,1.7,64.5,3.4c5,0,5,0,5-5c-1.7-6.7-3.4-11.9-3.4-18.6c-1.7-10.3-5-20.3-6.7-32.2C561.9,787.8,541.4,806.5,519.4,823.4z
	 M498.9,823.4c-22-17-42.5-33.9-64.5-52.7c-3.4,18.6-6.7,35.6-10.3,52.7c0,5,0,5,3.4,5c17-1.7,32.2-1.7,49.2-3.4
	C483.6,825.1,490.5,825.1,498.9,823.4z M498.9,188.3c-5,0-6.7,0-10.3-1.7c-20.3-1.7-42.5-1.7-62.8-3.4c-3.4,0-3.4,0-3.4,3.4
	c3.4,17,6.7,32.2,10.3,49.2c1.7,5,1.7,5,5,1.7c11.9-10.3,25.5-20.3,37.3-28.9C482,201.7,490.5,195,498.9,188.3z M393.6,894.8
	C393.6,893.2,393.6,893.2,393.6,894.8c-8.6-18.6-18.6-35.6-27.2-52.7c-1.7-3.4-3.4-3.4-6.7-3.4c-17,1.7-33.9,1.7-50.9,3.4
	c0,0-1.7,0-1.7,1.7C336,859,364.9,876,393.6,894.8z M174.6,709.6L174.6,709.6c1.7-18.6,3.4-37.3,3.4-54.4c0-3.4,0-3.4-3.4-5
	c-15.3-8.6-28.9-17-44.2-23.9c-1.7-1.7-5-3.4-8.6-3.4C138.8,652,156,680.7,174.6,709.6z M393.6,120.2
	C391.9,118.5,391.9,118.5,393.6,120.2c-30.6,17-59.5,33.9-88.3,50.9c18.6,1.7,37.3,3.4,56.1,3.4c1.7,0,3.4-1.7,3.4-3.4
	c5-10.3,11.9-20.3,17-32.2C386.9,132.1,390.3,126.9,393.6,120.2z M172.9,301.9c-17,30.6-33.9,59.5-52.7,88.3c1.7,0,3.4,0,3.4,0
	c17-10.3,33.9-18.6,50.9-28.9c1.7-1.7,1.7-1.7,1.7-3.4c0-11.9-1.7-22-1.7-33.9C174.6,317.2,174.6,310.5,172.9,301.9z M896.5,621.2
	L896.5,621.2c-1.7,0-1.7,0-3.4,0c-17,8.6-33.9,18.6-49.2,27.2c-1.7,1.7-3.4,1.7-3.4,5c0,15.3,1.7,28.9,1.7,44.2
	c0,3.4,0,6.7,1.7,11.9C862.6,680.7,879.5,652,896.5,621.2z M402.2,894.8c3.4-20.3,6.7-37.3,11.9-56.1c0-3.4,0-3.4-1.7-3.4
	c-11.9,0-23.9,1.7-35.6,1.7c-3.4,0-3.4,1.7-1.7,3.4c3.4,5,5,10.3,8.6,15.3C388.6,869.3,395.5,881.2,402.2,894.8z M402.2,118.5
	L402.2,118.5c-10.3,17-20.3,35.6-30.6,52.7c-1.7,1.7,0,1.7,1.7,1.7c11.9,0,23.9,1.7,35.6,1.7c3.4,0,3.4-1.7,3.4-3.4
	c-1.7-10.3-3.4-18.6-5-28.9C405.5,135.5,403.9,126.9,402.2,118.5z M121.9,398.9c1.7,0,1.7,0,3.4,1.7c15.3,3.4,32.2,6.7,47.5,10.3
	c8.6,1.7,8.6,1.7,8.6-6.7c0-1.7,0-5,0-6.7c0-8.6-1.7-15.3-1.7-23.9c0-3.4-1.7-3.4-3.4-1.7c-6.7,3.4-13.6,8.6-22,11.9
	C142.4,386.9,132.1,393.6,121.9,398.9z M616.2,891.3C616.2,891.3,616.2,893.2,616.2,891.3c3.4-3.4,5-8.6,8.6-11.9
	c6.7-13.6,15.3-27.2,22-39.1c0-1.7,3.4-3.4-1.7-3.4c-11.9,0-23.9-1.7-37.3-1.7c-3.4,0-3.4,1.7-3.4,3.4c1.7,10.3,3.4,20.3,6.7,30.6
	C612.8,876,614.5,884.6,616.2,891.3z M896.5,612.8L896.5,612.8c-18.6-5-35.6-8.6-54.4-11.9c-3.4,0-3.4,0-3.4,3.4
	c0,11.9,1.7,23.9,1.7,35.6c0,3.4,1.7,3.4,3.4,1.7c5-3.4,11.9-6.7,17-10.3C872.6,626.4,884.6,619.5,896.5,612.8z M121.9,612.8
	c18.6,10.3,35.6,20.3,54.4,28.9c3.4,1.7,3.4,0,3.4-1.7c0-11.9,1.7-23.9,1.7-35.6c0-3.4,0-3.4-3.4-3.4c-11.9,1.7-23.9,5-33.9,6.7
	C135.5,609.5,128.8,611.2,121.9,612.8z"/>
<path class="st1" d="M835.4,505.8c-1.7,3.4-5,3.4-8.6,3.4c-10.3,0-20.3,0-30.6,0c-1.7,0-3.4,0-5,0c-3.4,0-5,0-8.6,0
	c-81.4,0-163.1,0-244.5,0c-8.6,0-17,0-25.5,0c-5,0-6.7-1.7-6.7-6.7c0-8.6,0-15.3,0-23.9c0-61.1,0-123.9,0-185.1c0-1.7,0-3.4,0-3.4
	c0-33.9,0-68,0-102c0-1.7,0-5,1.7-6.7c1.7,0,3.4-1.7,3.4-1.7c18.6-13.6,39.1-28.9,57.8-42.5c13.6-10.3,28.9-22,42.5-32.2
	c1.7,0,3.4,0,5,0c0,1.7,1.7,1.7,3.4,3.4c33.9,20.3,69.7,40.8,103.6,61.1c3.4,1.7,5,5,5,8.6c-3.4,37.3-5,74.7-8.6,112c0,3.4,0,5,5,5
	c37.3-3.4,73.1-5,110.3-8.6c5,0,8.6,0,10.3,5c20.3,35.6,40.8,69.7,61.1,103.6c1.7,3.4,1.7,6.7,0,10.3
	C882.9,439.5,859.2,471.7,835.4,505.8z M516.1,500.6c1.7,0,1.7,0,3.4-1.7c28.9-8.6,57.8-17,86.7-25.5
	c50.9-15.3,103.6-30.6,154.5-45.9c3.4-1.7,3.4-1.7,1.7-5c-15.3-39.1-30.6-78.1-47.5-118.9c0-1.7-1.7-1.7-5-3.4
	c-39.1-15.3-79.8-30.6-118.9-47.5c-3.4-1.7-3.4,0-5,1.7c-3.4,13.6-8.6,27.2-11.9,42.5c-15.3,54.4-30.6,107-47.5,161.4
	c-3.4,13.6-8.6,27.2-11.9,39.1C514.4,499,512.5,500.6,516.1,500.6z M538.1,502.5L538.1,502.5c95.1,0,188.6,0,283.7,0
	c0-1.7,0-1.7,0-1.7c-17-22-33.9-42.5-50.9-64.5c-1.7-1.7-3.4-1.7-5-1.7c-17,5-33.9,10.3-50.9,15.3c-50.9,15.3-102,30.6-152.8,45.9
	C553.4,497.3,545,499,538.1,502.5z M512.5,193.3c0,96.7,0,192,0,285.4c1.7-1.7,1.7-3.4,1.7-5c5-18.6,11.9-39.1,17-57.8
	c17-54.4,32.2-108.7,49.2-164.8c0-1.7,0-5-1.7-6.7c-15.3-11.9-32.2-25.5-47.5-39.1C526.1,203.5,519.4,198.3,512.5,193.3z
	 M723.1,303.6L723.1,303.6c3.4,10.3,6.7,18.6,10.3,27.2c11.9,30.6,23.9,59.5,35.6,90c1.7,1.7,1.7,3.4,5,3.4
	c18.6-3.4,35.6-6.7,54.4-11.9c3.4,0,3.4-1.7,3.4-5c0-13.6,1.7-27.2,1.7-40.8c0-3.4-1.7-3.4-3.4-5c-27.2-15.3-52.7-28.9-79.8-44.2
	C742,313.9,731.7,308.8,723.1,303.6z M711.4,293.6c1.7-1.7,0-1.7,0-3.4c-18.6-35.6-39.1-69.7-57.8-105.3c-1.7-1.7-3.4-3.4-5-3.4
	c-15.3,0-28.9,1.7-42.5,1.7c-3.4,0-3.4,1.7-5,3.4c-3.4,17-6.7,32.2-10.3,49.2c-1.7,8.6-1.7,8.6,6.7,11.9
	C635,263,673.9,278.3,711.4,293.6z M713.1,281.6C714.8,281.6,714.8,281.6,713.1,281.6c1.7-3.4,1.7-6.7,1.7-10.3
	c1.7-30.6,5-59.5,6.7-90c0-3.4,0-5-5-5c-17,1.7-35.6,1.7-52.7,3.4c-5,0-5,0-3.4,5c13.6,25.5,28.9,50.9,42.5,76.4
	C706.2,269.7,709.7,274.7,713.1,281.6z M733.4,300.3C733.4,300.3,733.4,301.9,733.4,300.3c32.2,18.6,66.2,37.3,100.3,56.1
	c0-1.7,0-3.4,0-5c1.7-17,1.7-33.9,3.4-52.7c0-6.7,0-6.7-6.7-5c-23.9,1.7-47.5,3.4-71.4,5C752,298.6,743.6,300.3,733.4,300.3z
	 M609.5,116.9C609.5,116.9,607.8,116.9,609.5,116.9c-28.9,20.3-57.8,42.5-88.3,62.8c1.7,0,3.4,0,3.4,0c23.9-1.7,45.9-1.7,69.7-3.4
	c1.7,0,3.4-1.7,3.4-3.4c1.7-5,1.7-10.3,3.4-15.3C602.6,145.8,606.1,132.1,609.5,116.9z M833.7,492.2
	C833.7,492.2,835.4,492.2,833.7,492.2c22-28.9,42.5-56.1,64.5-86.7c-18.6,3.4-33.9,6.7-50.9,10.3c-10.3,1.7-10.3,1.7-10.3,11.9
	c0,1.7,0,1.7,0,3.4C837,451.4,835.4,471.7,833.7,492.2z M774.2,431.1c17,22,33.9,42.5,52.7,64.5c0-3.4,0-5,0-8.6
	c1.7-22,1.7-42.5,3.4-64.5c0-1.7,0-5-3.4-3.4C809.8,424.2,792.9,427.8,774.2,431.1z M583.9,240.8c3.4-18.6,6.7-35.6,10.3-54.4
	c0-3.4-1.7-3.4-3.4-3.4c-20.3,1.7-40.8,1.7-61.1,3.4c-3.4,0-6.7,0-11.9,1.7C541.4,206.9,561.9,223.9,583.9,240.8z M713.1,171.1
	L713.1,171.1c-28.9-18.6-57.8-35.6-86.7-52.7c0,1.7,0,1.7,0,3.4c8.6,17,18.6,33.9,27.2,50.9c1.7,1.7,3.4,3.4,5,1.7
	C675.6,173,694.4,173,713.1,171.1z M845.6,301.9C845.6,301.9,843.9,303.6,845.6,301.9c-1.7,18.6-3.4,37.3-3.4,54.4
	c0,3.4,0,3.4,3.4,5c15.3,8.6,30.6,17,45.9,25.5c1.7,1.7,3.4,3.4,6.7,3.4C879.5,361.4,862.6,330.8,845.6,301.9z M616.2,118.5
	c-3.4,18.6-8.6,37.3-11.9,56.1c0,3.4,1.7,3.4,3.4,3.4c11.9,0,23.9-1.7,35.6-1.7c3.4,0,3.4-1.7,1.7-3.4c-5-8.6-8.6-15.3-13.6-23.9
	C626.4,138.9,621.4,128.8,616.2,118.5z M896.5,398.9L896.5,398.9c-18.6-10.3-35.6-20.3-52.7-30.6c-1.7-1.7-3.4,0-3.4,1.7
	c0,11.9-1.7,23.9-1.7,35.6c0,3.4,1.7,5,3.4,3.4C860.9,407.3,877.8,403.9,896.5,398.9z"/>
<path class="st2" d="M632.2,918.9L632.2,918.9L632.2,918.9C632.2,917,632.2,918.9,632.2,918.9z"/>
<path class="st2" d="M296.9,707.9L296.9,707.9C296.9,707.9,295.2,707.9,296.9,707.9C295.2,707.9,295.2,707.9,296.9,707.9z"/>
<path class="st2" d="M722.8,734C722.8,734,724.6,732.1,722.8,734C724.6,734,724.6,734,722.8,734C724.6,734,722.8,734,722.8,734z"/>
<path class="st2" d="M308.8,721.5C307.1,719.8,307.1,719.8,308.8,721.5C308.8,719.8,308.8,719.8,308.8,721.5
	C308.8,719.8,308.8,719.8,308.8,721.5z"/>
</svg>
