<?xml version="1.0" encoding="utf-8"?>
<!-- Generator: Adobe Illustrator 26.0.1, SVG Export Plug-In . SVG Version: 6.00 Build 0)  -->
<svg version="1.1" id="Capa_1" xmlns="http://www.w3.org/2000/svg" xmlns:xlink="http://www.w3.org/1999/xlink" x="0px" y="0px"
	 viewBox="0 0 648 648" style="enable-background:new 0 0 648 648;" xml:space="preserve">
<style type="text/css">
	.st0{fill:#B6B6B5;stroke:#B6B6B5;stroke-width:3;stroke-miterlimit:10;}
	.st1{fill:#2C3865;stroke:#2C3865;stroke-width:3;stroke-miterlimit:10;}
	.st2{fill:#FFFFFF;}
	.st3{fill:#26315E;}
	.st4{fill:#26315F;}
</style>
<g>
	<path class="st0" d="M497.5,215.1c0.9,3.6,3.6,5.5,5.5,8.2c10.9,14.6,21.9,29.2,32.8,43.7c3.6,4.6,3.6,3.6,0.9,9.1
		c-10.9,18.2-21.9,36.5-31.9,54.7c-0.9,1.8-2.7,2.7-5.5,2.7c-5.5-0.9-10.9-0.9-15.5-0.9c-12.8-0.9-25.5-1.8-37.4-2.7
		c-2.7,0-4.6,0-7.3-0.9c-1.8,0-1.8,0-1.8,1.8c0.9,12.8,1.8,26.4,2.7,39.2c0.9,7.3,0.9,14.6,1.8,21.9c0,2.7-0.9,3.6-2.7,5.5
		c-12.8,7.3-25.5,15.5-38.3,22.8c-6.4,3.6-12.8,7.3-19.1,10.9c-1.8,0.9-2.7,0-3.6-0.9c-17.3-12.8-34.6-25.5-51-38.3
		c-1.8-1.8-2.7-1.8-5.5,0c-17.3,12.8-34.6,25.5-51.9,38.3c-1.8,0.9-2.7,0.9-4.6,0c-13.7-8.2-28.3-16.4-41.9-24.6
		c-4.6-2.7-10-5.5-14.6-8.2c-1.8-0.9-2.7-2.7-2.7-5.5c1.8-18.2,2.7-36.5,4.6-54.7c0-1.8,0-3.6,0-6.4c0-1.8,0-1.8-1.8-1.8
		c-5.5,0-10.9,0.9-16.4,0.9c-5.5,0-10.9,0.9-15.5,0.9c-10,0.9-19.1,0.9-29.2,1.8c-2.7,0-3.6-0.9-4.6-2.7c-10-17.3-21-35.5-31-52.9
		c-3.6-5.5-3.6-5.5,0.9-10.9c11.8-16.4,24.6-32.8,36.5-49.2c0.9-1.8,0.9-2.7,0-3.6c-9.1-12.8-19.1-25.5-28.3-38.3
		c-3.6-4.6-7.3-10-10.9-14.6c-0.9-1.8-0.9-2.7,0-3.6c4.6-11.8,11.8-23.7,19.1-35.5c4.6-7.3,8.2-14.6,12.8-21.9
		c0.9-1.8,1.8-2.7,3.6-1.8c10,0.9,20,1.8,31,2.7c7.3,0.9,14.6,0.9,21.9,1.8c2.7,0,5.5,0,9.1,0.9c1.8,0,1.8-0.9,1.8-1.8
		c-0.9-7.3-0.9-14.6-1.8-21.9c0-5.5-0.9-10.9-0.9-16.4c-0.9-7.3-0.9-15.5-1.8-22.8c0-1.8,0-2.7,1.8-3.6
		c13.7-8.2,26.4-15.5,40.1-23.7c6.4-3.6,12.8-7.3,19.1-10.9c0.9,0,1.8,0,2.7,0c0,0.9,0.9,0.9,0.9,0.9c10,7.3,19.1,14.6,29.2,21.9
		c8.2,6.4,16.4,11.8,24.6,18.2c-0.9,0.9-0.9,1.8-0.9,3.6c0,18.2,0,36.5,0,54.7c0,0.9,0,1.8,0,1.8c-0.9-0.9,0-2.7,0-3.6
		c0-15.5,0-30.1,0-45.6c0-0.9,0-1.8,0-3.6c0-0.9,0-1.8-1.8-0.9c-0.9,0.9-2.7,1.8-3.6,2.7c-10,8.2-20,16.4-30.1,24.6
		c-0.9,0.9-1.8,1.8-0.9,2.7c1.8,6.4,3.6,12.8,5.5,20c3.6,11.8,7.3,23.7,10,34.6c5.5,17.3,10,34.6,15.5,52.9
		c1.8,5.5,2.7,10.9,5.5,15.5c0,4.6,0,8.2,0,12.8c0,2.7,0.9,3.6,3.6,3.6c4.6,0,9.1,0,13.7,0c0.9,0.9,1.8,0.9,3.6,1.8
		c15.5,4.6,30.1,9.1,45.6,13.7c23.7,7.3,48.3,14.6,72,21.9c1.8,0,1.8,0,2.7-0.9c7.3-9.1,14.6-18.2,22.8-27.3
		c1.8-2.7,3.6-5.5,6.4-8.2c-6.4,0-11.8,0-17.3,0c0.9-0.9,1.8,0,2.7,0c5.5,0,10.9,0,16.4,0C494.8,216.9,495.7,216,497.5,215.1z
		 M384.5,422.9c0.9,0,1.8-0.9,2.7-0.9c11.8-7.3,24.6-14.6,36.5-21.9c2.7-1.8,5.5-2.7,8.2-4.6c-10-0.9-20-1.8-30.1-1.8
		c-0.9,0-1.8,0.9-2.7,1.8c-1.8,3.6-3.6,6.4-5.5,10C390.9,410.1,388.1,416.5,384.5,422.9L384.5,422.9L384.5,422.9z M430.1,329.9
		L430.1,329.9c-21.9,8.2-41.9,16.4-62.9,24.6c-0.9,0.9-0.9,0.9-0.9,1.8c1.8,10,4.6,20,6.4,29.2c0,0.9,0.9,1.8,1.8,1.8
		c7.3,0,14.6,0.9,21.9,0.9c1.8,0,2.7-0.9,3.6-1.8c7.3-13.7,15.5-28.3,22.8-41.9C425.5,339.9,428.2,335.4,430.1,329.9
		C431,329.9,431,329.9,430.1,329.9C431,329,430.1,329.9,430.1,329.9z M207.7,323.5C207.7,323.5,208.6,323.5,207.7,323.5
		C208.6,323.5,208.6,323.5,207.7,323.5c0-0.9,0-1.8,0-2.7c-3.6-10-8.2-21-11.8-31c-3.6-10-7.3-20-11.8-29.2c0-0.9,0-2.7-2.7-1.8
		c-10,1.8-19.1,3.6-29.2,6.4c-1.8,0-1.8,0.9-1.8,2.7c0,7.3-0.9,14.6-0.9,21.9c0,1.8,0.9,1.8,1.8,2.7c12.8,7.3,25.5,13.7,38.3,21
		C194.9,316.2,201.3,319.9,207.7,323.5z M215,329.9L215,329.9C214.1,329.9,214.1,329.9,215,329.9c2.7,6.4,6.4,12.8,9.1,18.2
		c7.3,12.8,13.7,25.5,21,38.3c0.9,1.8,1.8,2.7,3.6,2.7c3.6,0,7.3,0,10.9-0.9c3.6,0,7.3-0.9,10-0.9c1.8,0,1.8-0.9,1.8-1.8
		c1.8-9.1,3.6-18.2,5.5-27.3c0.9-3.6,0.9-3.6-2.7-4.6c-16.4-6.4-32.8-12.8-49.2-19.1C223.2,332.6,219.5,330.8,215,329.9z
		 M279.7,79.3c-0.9,0-0.9,0.9-1.8,0.9c-21,8.2-41.9,16.4-62.9,24.6c-0.9,0.9-1.8,0.9-2.7,2.7c-8.2,21-16.4,42.8-25.5,63.8
		c-0.9,1.8,0,2.7,1.8,2.7c22.8,6.4,46.5,13.7,69.3,21c20,6.4,40.1,11.8,60.1,18.2c0.9,0,0.9,0.9,1.8,0s0-0.9,0-1.8
		c-4.6-14.6-9.1-29.2-12.8-43.7c-6.4-21-11.8-41-18.2-62c-2.7-8.2-4.6-15.5-7.3-23.7C280.6,80.2,280.6,79.3,279.7,79.3z
		 M319.8,219.6c0-1.8-0.9-0.9-1.8-0.9c-17.3,5.5-33.7,10-51,15.5c-26.4,7.3-51.9,15.5-78.4,22.8c-2.7,0.9-2.7,1.8-1.8,3.6
		c2.7,6.4,4.6,12.8,7.3,18.2c5.5,14.6,11.8,29.2,17.3,43.7c0.9,1.8,0.9,2.7,2.7,2.7c3.6,0.9,6.4,2.7,10,3.6
		c17.3,7.3,34.6,13.7,52.9,21c1.8,0.9,2.7,0.9,3.6-1.8c2.7-8.2,5.5-17.3,7.3-25.5c9.1-30.1,18.2-61.1,27.3-91.1
		C317,227.8,318,223.3,319.8,219.6z M365.4,350.9c0,0,0.9,0,0.9-0.9c3.6-1.8,8.2-2.7,11.8-4.6c17.3-7.3,34.6-13.7,51.9-21
		c0.9-0.9,1.8-0.9,1.8-1.8c8.2-21,16.4-42.8,25.5-63.8c0.9-1.8,0.9-1.8-0.9-2.7c-11.8-3.6-23.7-7.3-35.5-10.9
		c-18.2-5.5-35.5-10.9-53.8-16.4c-13.7-3.6-26.4-8.2-40.1-11.8c-1.8-0.9-2.7,0-1.8,1.8c5.5,17.3,10,33.7,15.5,51
		c5.5,19.1,10.9,37.4,16.4,56.5c1.8,7.3,4.6,14.6,6.4,21.9C364.4,350,364.4,351.8,365.4,350.9z M154.8,217.8
		c1.8,1.8,3.6,3.6,4.6,6.4c8.2,9.1,15.5,18.2,22.8,27.3c0.9,1.8,2.7,2.7,4.6,1.8c20-6.4,40.1-11.8,61.1-18.2
		c17.3-5.5,35.5-10,52.9-15.5c2.7-0.9,5.5-1.8,7.3-2.7C256.9,216.9,205.9,216.9,154.8,217.8z M307,213.3c0-0.9-0.9-0.9-1.8-0.9
		c-4.6-1.8-10-2.7-14.6-4.6c-18.2-5.5-36.5-10.9-53.8-16.4s-33.7-10-51-15.5c-1.8-0.9-2.7,0-3.6,0.9c-7.3,10.9-15.5,20-22.8,30.1
		c-1.8,1.8-3.6,3.6-4.6,6.4C205.9,213.3,256.9,213.3,307,213.3z M320.7,230.6L320.7,230.6c-5.5,17.3-10.9,35.5-16.4,52.9
		c-6.4,22.8-13.7,45.6-20,68.4c-0.9,1.8,0,2.7,0.9,3.6c9.1,7.3,18.2,14.6,27.3,21.9c2.7,1.8,5.5,4.6,8.2,6.4
		C320.7,331.7,320.7,281.6,320.7,230.6z M324.3,382.8c0.9,0,1.8-0.9,1.8-0.9c10.9-9.1,22.8-18.2,33.7-27.3c0.9-0.9,0.9-1.8,0.9-2.7
		c-1.8-5.5-3.6-11.8-5.5-17.3c-8.2-27.3-16.4-55.6-24.6-82.9c-1.8-7.3-4.6-13.7-6.4-21l0,0C324.3,280.7,324.3,331.7,324.3,382.8z
		 M248.7,41c-1.8-0.9-2.7,0.9-3.6,1.8c-10,18.2-20,36.5-30.1,54.7c0,0.9-0.9,1.8-0.9,1.8c0.9,0.9,1.8,0,1.8,0
		c9.1-3.6,19.1-7.3,28.3-10.9c10.9-4.6,21.9-8.2,32.8-12.8c0.9,0,1.8-0.9,0.9-1.8c-1.8-10-4.6-20-6.4-30.1c0-0.9-0.9-1.8-1.8-1.8
		C263.3,41.9,256,41,248.7,41z M436.4,323.5C437.3,323.5,437.3,323.5,436.4,323.5c20-10,39.2-21,58.3-31c0.9-0.9,1.8-1.8,1.8-2.7
		c0-7.3-0.9-14.6-0.9-22.8c0-0.9,0-1.8-1.8-1.8c-3.6-0.9-6.4-0.9-10-1.8c-6.4-0.9-12.8-2.7-19.1-3.6c-1.8,0-2.7,0-2.7,1.8
		c-0.9,2.7-2.7,5.5-3.6,9.1c-5.5,13.7-10.9,26.4-16.4,40.1C440.1,314.4,438.3,319,436.4,323.5z M207.7,107.5
		C207.7,106.6,207.7,106.6,207.7,107.5c-0.9,0-1.8,0-2.7,0.9c-18.2,10-37.4,20-55.6,31c-0.9,0.9-1.8,1.8-1.8,2.7
		c0,7.3,0.9,14.6,0.9,21.9c0,1.8,0.9,1.8,1.8,2.7c9.1,1.8,19.1,3.6,28.3,5.5c1.8,0,2.7,0,2.7-1.8c5.5-14.6,11.8-29.2,17.3-43.7
		C203.1,119.4,205.9,113,207.7,107.5z M432.8,335.4c-0.9,0.9-1.8,1.8-1.8,2.7c-4.6,8.2-9.1,17.3-13.7,25.5
		c-4.6,8.2-9.1,15.5-12.8,23.7c-0.9,1.8-0.9,1.8,0.9,1.8c1.8,0,4.6,0,6.4,0c8.2,0,15.5,0.9,23.7,0.9c2.7,0,2.7,0,2.7-2.7
		c-0.9-12.8-1.8-24.6-2.7-37.4C433.7,346.3,432.8,340.8,432.8,335.4z M442.8,325.3c0.9,0,0.9,0,1.8,0c10,0.9,20,0.9,29.2,1.8
		c7.3,0.9,15.5,0.9,22.8,1.8c1.8,0,2.7,0,1.8-1.8c0-6.4-0.9-12.8-0.9-19.1c0-3.6-0.9-6.4-0.9-10c0-2.7-0.9-2.7-2.7-0.9
		c-11.8,6.4-23.7,12.8-34.6,19.1C453.8,319,448.3,321.7,442.8,325.3z M202.2,105.7C202.2,105.7,202.2,104.8,202.2,105.7
		c-6.4-0.9-11.8-0.9-18.2-1.8c-11.8-0.9-23.7-1.8-35.5-2.7c-1.8,0-2.7,0-2.7,2.7c0.9,10,0.9,20,1.8,29.2c0,1.8,0.9,1.8,1.8,0.9
		c10-5.5,21-11.8,31.9-17.3C188.6,113,194.9,109.4,202.2,105.7z M213.2,335.4C213.2,336.3,213.2,336.3,213.2,335.4
		c-0.9,8.2-0.9,14.6-1.8,21.9c-0.9,10-1.8,21-2.7,31c0,1.8,0,2.7,1.8,2.7c10-0.9,19.1-0.9,29.2-1.8c3.6,0,3.6,0,1.8-2.7
		c-8.2-15.5-16.4-31-25.5-45.6C215,339,214.1,337.2,213.2,335.4z M212.2,95.7c2.7-5.5,5.5-10.9,8.2-15.5c6.4-12.8,13.7-24.6,20-37.4
		c0.9-1.8,0.9-2.7-0.9-2.7c-4.6,0-8.2,0-12.8-0.9c-4.6,0-8.2,0-12.8-0.9c-6.4-0.9-6.4,0-6.4,6.4c0.9,10,1.8,21,2.7,31
		C211.3,82,212.2,88.4,212.2,95.7z M202.2,325.3C202.2,325.3,202.2,324.4,202.2,325.3c-17.3-10-34.6-19.1-51.9-29.2
		c-1.8-0.9-1.8,0-1.8,0.9c-0.9,10-0.9,19.1-1.8,29.2c0,2.7,0.9,2.7,2.7,2.7c11.8-0.9,22.8-1.8,34.6-2.7
		C190.4,326.3,195.8,326.3,202.2,325.3z M113.8,161.3C113.8,162.2,113.8,162.2,113.8,161.3c10.9,15.5,22.8,31,33.7,46.5
		c0-11.8-0.9-22.8-0.9-34.6c0-5.5,0-5.5-5.5-6.4C132,165,122.9,163.1,113.8,161.3z M315.2,41C315.2,41,315.2,40.1,315.2,41
		c-15.5-11.8-30.1-22.8-45.6-34.6c0,0.9,0,1.8,0,1.8c1.8,10,3.6,19.1,5.5,29.2c0,0.9,0.9,1.8,1.8,1.8c5.5,0,10.9,0.9,16.4,0.9
		C300.6,40.1,307.9,40.1,315.2,41z M497.5,222.4C497.5,222.4,496.6,222.4,497.5,222.4c-0.9,0.9-0.9,0.9-0.9,1.8
		c0.9,11.8,0.9,24.6,1.8,36.5c0,1.8,0.9,1.8,1.8,1.8c5.5,0.9,10.9,1.8,15.5,3.6c4.6,0.9,9.1,1.8,14.6,2.7
		C520.3,252.4,508.4,237.9,497.5,222.4z M113.8,268.8c0.9,0,0.9,0,1.8,0c10-1.8,19.1-3.6,29.2-6.4c1.8,0,1.8-0.9,1.8-1.8
		c0.9-10.9,0.9-21.9,1.8-32.8c0-1.8,0-3.6,0-5.5c0,0,0,0-0.9,0C136.6,237.9,124.8,253.4,113.8,268.8z M316.1,390.1
		C315.2,390.1,315.2,390.1,316.1,390.1c-6.4,0-11.8,0-17.3,0c-6.4,0-13.7,0.9-20,0.9c-1.8,0-2.7,0.9-2.7,2.7
		c-0.9,5.5-1.8,10.9-3.6,15.5c-0.9,4.6-1.8,9.1-2.7,14.6C285.2,412.8,300.6,401,316.1,390.1z M376.3,424.7
		c-1.8-10.9-4.6-21-6.4-31.9c0-0.9-0.9-1.8-1.8-1.8c-2.7,0-5.5,0-7.3,0c-4.6,0-10-0.9-14.6-0.9c-5.5,0-10,0-15.5,0
		C345.3,401,359.9,412.8,376.3,424.7z M180.3,175c-0.9,0-1.8-0.9-2.7-0.9c-8.2-1.8-16.4-3.6-24.6-4.6c-3.6-0.9-3.6-0.9-2.7,2.7
		c0.9,11.8,0.9,23.7,1.8,35.5c0,0,0,0.9,0.9,0.9C161.2,197.8,170.3,186.8,180.3,175z M464.7,255.2c9.1,1.8,18.2,3.6,27.3,5.5
		c3.6,0.9,2.7,0,2.7-2.7c-0.9-10-0.9-21-1.8-31c0-1.8,0-4.6-0.9-7.3C482.9,232.4,473.8,243.3,464.7,255.2z M152.1,220.5L152.1,220.5
		c-0.9,1.8-0.9,3.6-0.9,4.6c-0.9,10.9-0.9,22.8-1.8,33.7c0,1.8,0,1.8,1.8,1.8c8.2-1.8,17.3-3.6,25.5-5.5c2.7-0.9,2.7-0.9,0.9-2.7
		c-3.6-3.6-6.4-8.2-10-11.8C163,234.2,157.6,227.8,152.1,220.5z M328,385.5L328,385.5c0.9,0.9,1.8,0.9,2.7,0.9
		c11.8,0.9,23.7,0.9,34.6,1.8c2.7,0,2.7,0,2.7-2.7c-0.9-3.6-1.8-6.4-1.8-10c-0.9-5.5-2.7-10.9-3.6-17.3
		C350.8,366.4,339.8,376.4,328,385.5z M317,385.5c-11.8-9.1-22.8-18.2-34.6-28.3c-1.8,10-3.6,19.1-5.5,28.3c0,2.7,0,2.7,1.8,2.7
		c9.1-0.9,17.3-0.9,26.4-1.8C308.8,386.4,312.5,386.4,317,385.5z M317,44.7c-2.7,0-3.6,0-5.5-0.9c-10.9-0.9-22.8-0.9-33.7-1.8
		c-1.8,0-1.8,0-1.8,1.8c1.8,9.1,3.6,17.3,5.5,26.4c0.9,2.7,0.9,2.7,2.7,0.9c6.4-5.5,13.7-10.9,20-15.5
		C307.9,51.9,312.5,48.3,317,44.7z M260.5,423.8C260.5,422.9,260.5,422.9,260.5,423.8c-4.6-10-10-19.1-14.6-28.3
		c-0.9-1.8-1.8-1.8-3.6-1.8c-9.1,0.9-18.2,0.9-27.3,1.8c0,0-0.9,0-0.9,0.9C229.6,404.6,245.1,413.7,260.5,423.8z M143,324.4
		L143,324.4c0.9-10,1.8-20,1.8-29.2c0-1.8,0-1.8-1.8-2.7c-8.2-4.6-15.5-9.1-23.7-12.8c-0.9-0.9-2.7-1.8-4.6-1.8
		C123.8,293.5,133,308.9,143,324.4z M260.5,8.2C259.6,7.3,259.6,7.3,260.5,8.2c-16.4,9.1-31.9,18.2-47.4,27.3
		c10,0.9,20,1.8,30.1,1.8c0.9,0,1.8-0.9,1.8-1.8c2.7-5.5,6.4-10.9,9.1-17.3C256.9,14.6,258.7,11.8,260.5,8.2z M142.1,105.7
		c-9.1,16.4-18.2,31.9-28.3,47.4c0.9,0,1.8,0,1.8,0c9.1-5.5,18.2-10,27.3-15.5c0.9-0.9,0.9-0.9,0.9-1.8c0-6.4-0.9-11.8-0.9-18.2
		C143,113.9,143,110.3,142.1,105.7z M530.3,277L530.3,277c-0.9,0-0.9,0-1.8,0c-9.1,4.6-18.2,10-26.4,14.6c-0.9,0.9-1.8,0.9-1.8,2.7
		c0,8.2,0.9,15.5,0.9,23.7c0,1.8,0,3.6,0.9,6.4C512.1,308.9,521.2,293.5,530.3,277z M265.1,423.8c1.8-10.9,3.6-20,6.4-30.1
		c0-1.8,0-1.8-0.9-1.8c-6.4,0-12.8,0.9-19.1,0.9c-1.8,0-1.8,0.9-0.9,1.8c1.8,2.7,2.7,5.5,4.6,8.2
		C257.8,410.1,261.5,416.5,265.1,423.8z M265.1,7.3L265.1,7.3c-5.5,9.1-10.9,19.1-16.4,28.3c-0.9,0.9,0,0.9,0.9,0.9
		c6.4,0,12.8,0.9,19.1,0.9c1.8,0,1.8-0.9,1.8-1.8c-0.9-5.5-1.8-10-2.7-15.5C266.9,16.4,266,11.8,265.1,7.3z M114.7,157.7
		c0.9,0,0.9,0,1.8,0.9c8.2,1.8,17.3,3.6,25.5,5.5c4.6,0.9,4.6,0.9,4.6-3.6c0-0.9,0-2.7,0-3.6c0-4.6-0.9-8.2-0.9-12.8
		c0-1.8-0.9-1.8-1.8-0.9c-3.6,1.8-7.3,4.6-11.8,6.4C125.7,151.3,120.2,154.9,114.7,157.7z M379.9,421.9
		C379.9,421.9,379.9,422.9,379.9,421.9c1.8-1.8,2.7-4.6,4.6-6.4c3.6-7.3,8.2-14.6,11.8-21c0-0.9,1.8-1.8-0.9-1.8
		c-6.4,0-12.8-0.9-20-0.9c-1.8,0-1.8,0.9-1.8,1.8c0.9,5.5,1.8,10.9,3.6,16.4C378.1,413.7,379,418.3,379.9,421.9z M530.3,272.5
		L530.3,272.5c-10-2.7-19.1-4.6-29.2-6.4c-1.8,0-1.8,0-1.8,1.8c0,6.4,0.9,12.8,0.9,19.1c0,1.8,0.9,1.8,1.8,0.9
		c2.7-1.8,6.4-3.6,9.1-5.5C517.5,279.8,523.9,276.1,530.3,272.5z M114.7,272.5c10,5.5,19.1,10.9,29.2,15.5c1.8,0.9,1.8,0,1.8-0.9
		c0-6.4,0.9-12.8,0.9-19.1c0-1.8,0-1.8-1.8-1.8c-6.4,0.9-12.8,2.7-18.2,3.6C122,270.7,118.4,271.6,114.7,272.5z"/>
	<path class="st1" d="M497.5,215.1c-0.9,1.8-2.7,1.8-4.6,1.8c-5.5,0-10.9,0-16.4,0c-0.9,0-1.8,0-2.7,0c-1.8,0-2.7,0-4.6,0
		c-43.7,0-87.5,0-131.2,0c-4.6,0-9.1,0-13.7,0c-2.7,0-3.6-0.9-3.6-3.6c0-4.6,0-8.2,0-12.8c0-32.8,0-66.5,0-99.3c0-0.9,0-1.8,0-1.8
		c0-18.2,0-36.5,0-54.7c0-0.9,0-2.7,0.9-3.6c0.9,0,1.8-0.9,1.8-0.9c10-7.3,21-15.5,31-22.8c7.3-5.5,15.5-11.8,22.8-17.3
		c0.9,0,1.8,0,2.7,0c0,0.9,0.9,0.9,1.8,1.8c18.2,10.9,37.4,21.9,55.6,32.8c1.8,0.9,2.7,2.7,2.7,4.6c-1.8,20-2.7,40.1-4.6,60.1
		c0,1.8,0,2.7,2.7,2.7c20-1.8,39.2-2.7,59.2-4.6c2.7,0,4.6,0,5.5,2.7c10.9,19.1,21.9,37.4,32.8,55.6c0.9,1.8,0.9,3.6,0,5.5
		C523,179.5,510.3,196.8,497.5,215.1z M326.2,212.3c0.9,0,0.9,0,1.8-0.9c15.5-4.6,31-9.1,46.5-13.7c27.3-8.2,55.6-16.4,82.9-24.6
		c1.8-0.9,1.8-0.9,0.9-2.7c-8.2-21-16.4-41.9-25.5-63.8c0-0.9-0.9-0.9-2.7-1.8c-21-8.2-42.8-16.4-63.8-25.5c-1.8-0.9-1.8,0-2.7,0.9
		c-1.8,7.3-4.6,14.6-6.4,22.8c-8.2,29.2-16.4,57.4-25.5,86.6c-1.8,7.3-4.6,14.6-6.4,21C325.3,211.4,324.3,212.3,326.2,212.3z
		 M338,213.3L338,213.3c51,0,101.2,0,152.2,0c0-0.9,0-0.9,0-0.9c-9.1-11.8-18.2-22.8-27.3-34.6c-0.9-0.9-1.8-0.9-2.7-0.9
		c-9.1,2.7-18.2,5.5-27.3,8.2c-27.3,8.2-54.7,16.4-82,24.6C346.2,210.5,341.7,211.4,338,213.3z M324.3,47.4c0,51.9,0,103,0,153.1
		c0.9-0.9,0.9-1.8,0.9-2.7c2.7-10,6.4-21,9.1-31c9.1-29.2,17.3-58.3,26.4-88.4c0-0.9,0-2.7-0.9-3.6c-8.2-6.4-17.3-13.7-25.5-21
		C331.6,52.9,328,50.1,324.3,47.4z M437.3,106.6L437.3,106.6c1.8,5.5,3.6,10,5.5,14.6c6.4,16.4,12.8,31.9,19.1,48.3
		c0.9,0.9,0.9,1.8,2.7,1.8c10-1.8,19.1-3.6,29.2-6.4c1.8,0,1.8-0.9,1.8-2.7c0-7.3,0.9-14.6,0.9-21.9c0-1.8-0.9-1.8-1.8-2.7
		c-14.6-8.2-28.3-15.5-42.8-23.7C447.4,112.1,441.9,109.4,437.3,106.6z M431,101.2c0.9-0.9,0-0.9,0-1.8c-10-19.1-21-37.4-31-56.5
		c-0.9-0.9-1.8-1.8-2.7-1.8c-8.2,0-15.5,0.9-22.8,0.9c-1.8,0-1.8,0.9-2.7,1.8c-1.8,9.1-3.6,17.3-5.5,26.4c-0.9,4.6-0.9,4.6,3.6,6.4
		C390,84.8,410.9,93,431,101.2z M431.9,94.8C432.8,94.8,432.8,94.8,431.9,94.8c0.9-1.8,0.9-3.6,0.9-5.5c0.9-16.4,2.7-31.9,3.6-48.3
		c0-1.8,0-2.7-2.7-2.7c-9.1,0.9-19.1,0.9-28.3,1.8c-2.7,0-2.7,0-1.8,2.7c7.3,13.7,15.5,27.3,22.8,41
		C428.2,88.4,430.1,91.1,431.9,94.8z M442.8,104.8C442.8,104.8,442.8,105.7,442.8,104.8c17.3,10,35.5,20,53.8,30.1
		c0-0.9,0-1.8,0-2.7c0.9-9.1,0.9-18.2,1.8-28.3c0-3.6,0-3.6-3.6-2.7c-12.8,0.9-25.5,1.8-38.3,2.7
		C452.8,103.9,448.3,104.8,442.8,104.8z M376.3,6.4C376.3,6.4,375.4,6.4,376.3,6.4c-15.5,10.9-31,22.8-47.4,33.7c0.9,0,1.8,0,1.8,0
		c12.8-0.9,24.6-0.9,37.4-1.8c0.9,0,1.8-0.9,1.8-1.8c0.9-2.7,0.9-5.5,1.8-8.2C372.6,21.9,374.5,14.6,376.3,6.4z M496.6,207.8
		C496.6,207.8,497.5,207.8,496.6,207.8c11.8-15.5,22.8-30.1,34.6-46.5c-10,1.8-18.2,3.6-27.3,5.5c-5.5,0.9-5.5,0.9-5.5,6.4
		c0,0.9,0,0.9,0,1.8C498.4,185.9,497.5,196.8,496.6,207.8z M464.7,175c9.1,11.8,18.2,22.8,28.3,34.6c0-1.8,0-2.7,0-4.6
		c0.9-11.8,0.9-22.8,1.8-34.6c0-0.9,0-2.7-1.8-1.8C483.8,171.3,474.7,173.2,464.7,175z M362.6,72.9c1.8-10,3.6-19.1,5.5-29.2
		c0-1.8-0.9-1.8-1.8-1.8c-10.9,0.9-21.9,0.9-32.8,1.8c-1.8,0-3.6,0-6.4,0.9C339.8,54.7,350.8,63.8,362.6,72.9z M431.9,35.5
		L431.9,35.5c-15.5-10-31-19.1-46.5-28.3c0,0.9,0,0.9,0,1.8c4.6,9.1,10,18.2,14.6,27.3c0.9,0.9,1.8,1.8,2.7,0.9
		C411.8,36.5,421.9,36.5,431.9,35.5z M503,105.7C503,105.7,502.1,106.6,503,105.7c-0.9,10-1.8,20-1.8,29.2c0,1.8,0,1.8,1.8,2.7
		c8.2,4.6,16.4,9.1,24.6,13.7c0.9,0.9,1.8,1.8,3.6,1.8C521.2,137.6,512.1,121.2,503,105.7z M379.9,7.3c-1.8,10-4.6,20-6.4,30.1
		c0,1.8,0.9,1.8,1.8,1.8c6.4,0,12.8-0.9,19.1-0.9c1.8,0,1.8-0.9,0.9-1.8c-2.7-4.6-4.6-8.2-7.3-12.8C385.4,18.2,382.7,12.8,379.9,7.3
		z M530.3,157.7L530.3,157.7c-10-5.5-19.1-10.9-28.3-16.4c-0.9-0.9-1.8,0-1.8,0.9c0,6.4-0.9,12.8-0.9,19.1c0,1.8,0.9,2.7,1.8,1.8
		C511.2,162.2,520.3,160.4,530.3,157.7z"/>
	<path class="st2" d="M388.5,436.7L388.5,436.7L388.5,436.7C388.5,435.7,388.5,436.7,388.5,436.7z"/>
	<path class="st2" d="M208.6,323.5L208.6,323.5C208.6,323.5,207.7,323.5,208.6,323.5C207.7,323.5,207.7,323.5,208.6,323.5z"/>
	<path class="st2" d="M437.1,337.5C437.1,337.5,438.1,336.5,437.1,337.5C438.1,337.5,438.1,337.5,437.1,337.5
		C438.1,337.5,437.1,337.5,437.1,337.5z"/>
	<path class="st2" d="M215,330.8C214.1,329.9,214.1,329.9,215,330.8C215,329.9,215,329.9,215,330.8C215,329.9,215,329.9,215,330.8z"
		/>
</g>
<g>
	<path class="st3" d="M616.3,644.5c-1.1,2.1-2.9,2.8-5.2,2.7c-4.3-0.2-8.5-0.1-12.8,0c-1.8,0-3-0.7-3.9-2.2
		c-6.5-10.6-13-21.2-19.5-31.8c-1.1-1.8-2.4-2.6-4.5-2.5c-4.6,0.1-9.3,0-14,0c-2.7,0-4.2,1.5-4.2,4.2c0,9.2,0,18.5,0,27.7
		c0,3.2-1.3,4.5-4.5,4.5c-4.1,0-8.1,0-12.2,0c-3.3,0-4.7-1.4-4.7-4.7c0-24.2,0-48.4,0-72.6c0-8.9,0.1-17.8,0-26.7
		c0-2.9,1-5.1,5.1-5.1c14.5,0.1,29-0.1,43.5,0.1c13,0.1,22.4,6.5,29.1,17.2c3.9,6.1,5.7,12.9,5.4,20.2c-0.5,12.2-5.4,22.1-15.9,28.8
		c-2.3,1.5-2.7,3.3-1.3,5.7c6.2,10.2,12.3,20.3,18.5,30.5c0.4,0.6,0.8,1.3,1.1,2C616.3,643.2,616.3,643.8,616.3,644.5z M552.3,574.3
		c0,4.6,0,9.1,0,13.7c0,2.5,1.5,3.9,4,3.9c7.6,0,15.2,0,22.8,0c2.6,0,4.8-0.8,6.8-2.4c6.8-5.4,8.8-16.7,4.3-24.5
		c-3.1-5.4-7.5-8.5-14-8.3c-6.5,0.2-13,0-19.5,0c-3.1,0-4.4,1.3-4.4,4.4C552.3,565.6,552.3,570,552.3,574.3z"/>
	<path class="st3" d="M410.2,648c-1.2-0.6-2.5-0.5-3.8-0.7c-13.8-2.4-24.9-9.3-32.9-20.7c-12.5-17.6-15.1-36.7-6.4-56.7
		c6.3-14.5,17-25,32.2-29.9c15.8-5.2,31.2-3.5,45,6.2c13.3,9.3,21.2,22.3,23.6,38.1c3.1,19.8-3.3,36.7-17.8,50.4
		c-7.9,7.4-17.5,11.7-28.3,12.9c-0.5,0.1-1.1,0-1.6,0c-2.4,0-4.7,0-7.1,0c-0.6,0-1.3-0.2-1.8,0.3C411,648,410.6,648,410.2,648z
		 M447.3,592.7c0-4-0.5-7.8-1.6-11.6c-2-6.7-5.3-12.7-10.5-17.4c-12-10.9-34-10.5-44.6,6.1c-7.8,12.2-8.9,25.3-3.7,38.7
		c4.1,10.7,11.5,18.1,23.2,20.1c12,2,22-1.7,29.4-11.5C444.8,609.9,447.1,601.6,447.3,592.7z"/>
	<path class="st3" d="M31.7,642.5c1.5-4,3.1-8,4.6-12c3-8.1,6-16.2,9-24.3c4.6-12.4,9.1-24.7,13.7-37.1c3.4-9.2,6.8-18.5,10.2-27.7
		c0.9-2.4,1.9-3.1,4.5-3.1c5,0,10,0,15,0c2.6,0,3.6,0.7,4.5,3.1c5.7,15.5,11.4,31,17.1,46.5c6.3,17.1,12.6,34.3,18.9,51.4
		c0.4,1,0.8,2,1.1,3c0.8,2.6-0.9,5-3.6,5c-4.6,0.1-9.1,0-13.7,0c-2.1,0-3.2-1-3.9-3.1c-2.3-6.9-4.6-13.8-6.9-20.8
		c-0.9-2.6-1.9-3.3-4.6-3.3c-11,0-21.9,0-32.9,0c-2.9,0-3.8,0.6-4.7,3.3c-2.3,6.7-4.5,13.5-6.8,20.2c-1,2.9-1.9,3.6-5,3.6
		c-3.8,0-7.6-0.1-11.3,0c-2.4,0.1-4.1-0.6-5.2-2.7C31.7,643.8,31.7,643.2,31.7,642.5z M81.1,605C81.1,605,81.1,605,81.1,605
		c3.2,0,6.4,0,9.6,0c2.9,0,4.5-2.3,3.6-5c-3.2-9.8-6.5-19.5-9.8-29.3c-0.5-1.5-1.9-2.4-3.4-2.5c-1.5,0-2.9,0.9-3.5,2.4
		c-0.4,1-0.7,2.1-1.1,3.2c-2.9,8.7-5.8,17.3-8.7,26c-1,3.1,0.6,5.2,3.8,5.3C74.8,605.1,78,605,81.1,605z"/>
	<path class="st4" d="M411.4,648c0.5-0.5,1.2-0.3,1.8-0.3c2.4,0,4.7,0,7.1,0c0,0.1,0.1,0.2,0.1,0.3C417.4,648,414.4,648,411.4,648z"
		/>
	<path class="st3" d="M300.1,592.7c0,16.7,0,33.3,0,50c0,3.2-1.3,4.5-4.5,4.5c-4.1,0-8.2,0-12.4,0c-3.1,0-4.4-1.4-4.4-4.4
		c0-17.1,0-34.2,0-51.3c0-2.9-1.5-4.5-4-4.3c-1.5,0.1-2.4,0.9-3,2.2c-3.6,6.8-7.1,13.6-10.7,20.4c-2.9,5.5-5.8,10.9-8.6,16.4
		c-1,1.9-2.3,2.9-4.5,2.7c-2.1-0.1-4.2-0.1-6.2,0c-1.9,0.1-3.1-0.7-3.9-2.4c-4.7-9-9.5-18.1-14.2-27.1c-1.7-3.2-3.4-6.5-5.1-9.7
		c-1.2-2.2-2.5-2.9-4.5-2.4c-1.8,0.5-2.7,1.8-2.7,4.3c0,16.6,0,33.2,0,49.8c0,0.7,0,1.4,0,2c-0.1,2.2-1.6,3.7-3.8,3.7
		c-4.6,0-9.1,0-13.7,0c-2.4,0-3.9-1.6-3.9-3.9c0-33.7,0-67.4,0-101.1c0-2.4,1.5-3.9,3.9-4c5.5,0,11,0,16.6,0c1.8,0,2.9,1,3.7,2.5
		c4.5,8.8,9.1,17.6,13.7,26.4c4.6,8.8,9.2,17.6,13.7,26.4c0.8,1.5,1.8,2.4,3.5,2.4c1.7,0,2.7-1,3.5-2.5
		c6.4-12.3,12.9-24.6,19.3-36.9c2.8-5.3,5.6-10.5,8.3-15.8c0.9-1.7,2.2-2.5,4.2-2.5c5.2,0.1,10.5,0,15.7,0c2.7,0,4.1,1.5,4.1,4.1
		C300.1,559.1,300.1,575.9,300.1,592.7z"/>
	<path class="st4" d="M103.9,472.5c0-9.5,0-19.1,0-28.6c0-3,1.2-4.2,4.2-4.2c1.3,0,2.6,0,3.9,0c1.5,0,2.6,0.6,3.5,1.7
		c8.8,11.2,17.5,22.4,26.3,33.6c1.3,1.6,2.5,2.1,3.8,1.6c1.6-0.6,2.3-1.8,2.3-3.8c0-9.8,0.1-19.6,0-29.3c0-2.2,1.4-3.7,3.6-3.8
		c1.8,0,3.7-0.1,5.5,0c2.5,0.1,3.7,1.4,3.7,3.9c0,19.2,0,38.4,0,57.7c0,3-1.1,4.1-4.1,4.1c-1.5,0-3-0.1-4.5,0
		c-1.4,0.1-2.5-0.5-3.4-1.6c-7.6-9.6-15.2-19.1-22.7-28.6c-1.1-1.4-2.2-2.8-3.3-4.2c-1.2-1.5-2.3-1.9-3.8-1.4
		c-1.5,0.5-2.2,1.6-2.2,3.5c0,9.1,0,18.2,0,27.3c0,0.8,0,1.6-0.1,2.3c-0.3,1.6-1.4,2.6-3,2.6c-2.2,0-4.5,0-6.7,0c-1.9,0-3-1.4-3-3.5
		c0-5.7,0-11.3,0-17C103.9,480.7,103.9,476.6,103.9,472.5z M160,502.2c0.1,0,0.2,0,0.3,0c0-19.8,0-39.6,0-59.4c-0.1,0-0.2,0-0.3,0
		C160,462.6,160,482.4,160,502.2z"/>
	<path class="st4" d="M296.7,472.6c0-9.4,0-18.9,0-28.3c0-3.6,1-4.6,4.5-4.6c7.9,0,15.9,0.1,23.8,0c13.2-0.3,23.3,12.3,21.4,25.1
		c-0.9,6-3.6,10.9-8.8,14.4c-1.7,1.2-2,2.8-0.9,4.7c3.2,5.3,6.4,10.6,9.6,15.9c0.6,1,1.1,1.9,0.7,3.1c-0.4,1.5-1.5,2.4-3,2.4
		c-2.2,0-4.5,0-6.7,0c-1.6,0-2.4-1-3.2-2.2c-2.7-4.5-5.4-8.9-8.2-13.3c-1-1.6-1.9-3.1-2.9-4.7c-0.7-1.1-1.7-1.7-3-1.7
		c-2.4,0-4.8,0-7.3,0c-2.2,0-3.4,1.3-3.4,3.5c0,4.7,0,9.5,0,14.2c0,3.2-1,4.2-4.1,4.2c-1.6,0-3.3,0-4.9,0c-2.5,0-3.7-1.1-3.7-3.7
		c0-4.2,0-8.4,0-12.6C296.7,483.5,296.7,478.1,296.7,472.6z M309.5,461.5C309.5,461.5,309.5,461.5,309.5,461.5c0,2.4,0,4.8,0,7.3
		c0.1,2.1,1.4,3.4,3.5,3.4c3.6,0,7.3,0.1,10.9,0c3.4-0.1,6.3-1.4,8.1-4.4c1.8-3,2.1-6.3,1.1-9.7c-1.4-4.7-4.8-7.1-9.5-7.1
		c-3.5,0-7,0-10.5,0c-2.5,0-3.6,1.2-3.7,3.7C309.5,456.9,309.5,459.2,309.5,461.5z"/>
	<path class="st4" d="M613,472.9c-0.1,13.3-8.3,25.9-20.2,30.7c-13.5,5.4-29.3,1.5-38.2-12.1c-10.1-15.3-6.3-36.2,8.8-46.7
		c6.6-4.6,13.9-6.4,21.8-5.2c14.1,2,22.2,10.9,26.6,23.9C612.6,466.5,613,469.6,613,472.9z M561.9,471.1c0,6.9,1.5,11.8,4.7,16.2
		c6.7,9.1,21.1,9.6,28,0.8c6.8-8.6,7.2-20.4,1.2-29.5c-5.9-8.9-18.4-10.7-26.4-3.7C564.1,459.5,562,465.7,561.9,471.1z"/>
	<path class="st4" d="M247.5,498.1c-2.9,2.7-5.8,4.8-9.1,6c-7.7,2.9-15.3,2.2-22.5-1.6c-11.5-6.1-17.2-16.1-17.7-29
		c-0.5-11.7,3.9-21.2,13.3-28.3c6.7-5.1,14.5-6.7,22.8-5.8c7.4,0.8,13.6,3.7,18.5,9.4c0.2,0.3,0.4,0.5,0.6,0.8
		c2.2,2.9,2.1,4.3-0.9,6.5c-1,0.8-2.1,1.6-3.2,2.3c-1.9,1.3-3.5,1-5-0.7c-5.2-6.2-11.7-8.3-19.5-6.4c-4.1,1-7.4,3.6-9.6,7.1
		c-5.5,8.7-6,17.8-0.9,26.8c5.4,9.5,17.3,12.1,26.5,6.1c2.1-1.4,3.8-2.9,4.3-5.6c0.4-2.8-1-4.6-3.9-4.7c-1.3,0-2.5,0-3.8,0
		c-1.8-0.1-3.1-1.3-3.2-3.1c-0.1-1.1-0.1-2.1,0-3.2c0.1-1.8,1.3-3.1,3.2-3.1c5,0,10,0,15,0c3,0,5.6,2.6,5.6,5.7c0,8.2,0,16.4,0,24.5
		c0,2.2-1.3,3.4-3.6,3.4c-1.1,0-2.2,0-3.3,0c-2.4,0-3.7-1.2-3.7-3.6C247.5,500.6,247.5,499.6,247.5,498.1z"/>
	<path class="st4" d="M432.9,505.3c-5.6,0.1-5.5,0-7.2-5.2c-0.9-2.9-1.9-5.7-2.8-8.5c-0.6-1.8-1.6-2.6-3.6-2.6c-6.2,0-12.3,0-18.5,0
		c-2.1,0-3,0.6-3.7,2.6c-1.3,3.7-2.5,7.4-3.8,11.1c-0.7,2-1.5,2.6-3.7,2.6c-1.7,0-3.4,0-5.1,0c-3.2,0-4.6-2-3.5-5
		c1.9-5.3,3.9-10.6,5.9-15.9c5.2-14,10.4-28,15.5-42c0.8-2.1,1.7-2.8,3.9-2.8c2.4,0,4.8,0,7.3,0c2.1,0,3.2,0.8,3.9,2.8
		c3.5,9.6,7,19.1,10.5,28.7c3.6,9.7,7.2,19.5,10.8,29.2c1.1,2.9-0.4,4.9-3.4,4.9C434.7,505.3,433.8,505.3,432.9,505.3z M410.1,479.9
		C410.1,479.9,410.1,479.9,410.1,479.9c1.4,0,2.8,0,4.2,0c2.7-0.1,4-2,3.2-4.6c-1.5-4.3-2.9-8.6-4.3-12.9c-0.5-1.6-1.6-2.5-3-2.5
		c-1.4-0.1-2.6,0.8-3.1,2.3c-1.5,4.4-3,8.9-4.4,13.3c-0.7,2.3,0.6,4.2,3,4.3C407.1,480,408.7,479.9,410.1,479.9z"/>
	<path class="st4" d="M491.2,439.7c7.8,0,15.6,0,23.4,0c2.7,0,4,1.3,4,4c0,1.3,0,2.5,0,3.8c-0.1,2.3-1.3,3.5-3.7,3.6
		c-4.4,0-8.8,0-13.2,0c-3,0-4.1,1.1-4.1,4.1c0,15.3,0,30.6,0,45.9c0,3.3-1,4.3-4.3,4.3c-1.7,0-3.4,0-5.1,0c-1.9,0-3.2-1.2-3.3-3.1
		c-0.1-1.1,0-2.1,0-3.2c0-14.7,0-29.3,0-44c0-2.8-1.2-4-4-4c-4.4,0-8.8,0-13.2,0c-2.5,0-3.7-1.2-3.7-3.6c0-1.4,0-2.7,0-4.1
		c0-2.4,1.3-3.7,3.7-3.7C475.5,439.7,483.3,439.7,491.2,439.7z"/>
	<path class="st3" d="M62.5,472.6c0,9.5-0.1,19,0,28.5c0,3-1.3,4.5-4.2,4.3c-1.6-0.1-3.2,0-4.8,0c-2.6,0-3.8-1.2-3.8-3.8
		c0-7.1,0-14.1,0-21.2c0-12.2,0-24.4,0-36.6c0-2.7,1.3-4,4-4c1.7,0,3.4,0,5.1,0c2.5,0,3.8,1.3,3.8,3.7
		C62.5,453.1,62.5,462.9,62.5,472.6z"/>
	<ellipse class="st3" cx="160.1" cy="472.5" rx="0.2" ry="42"/>
</g>
</svg>
